<svg width="6" height="253" viewBox="0 0 6 253" fill="none" xmlns="http://www.w3.org/2000/svg">
<path d="M2.16669 251.667C2.16669 251.943 2.39054 252.167 2.66669 252.167C2.94283 252.167 3.16669 251.943 3.16669 251.667H2.66669H2.16669ZM2.66669 5.33328C4.13945 5.33328 5.33335 4.13939 5.33335 2.66663C5.33335 1.19386 4.13945 -4.57764e-05 2.66669 -4.57764e-05C1.19393 -4.57764e-05 2.02656e-05 1.19386 2.02656e-05 2.66663C2.02656e-05 4.13939 1.19393 5.33328 2.66669 5.33328ZM2.66669 251.667H3.16669L3.16669 2.66663H2.66669H2.16669L2.16669 251.667H2.66669Z" fill="#F67479"/>
</svg>
