<svg width="210" height="139" viewBox="0 0 210 139" fill="none" xmlns="http://www.w3.org/2000/svg">
<mask id="mask0_44_93" style="mask-type:alpha" maskUnits="userSpaceOnUse" x="0" y="0" width="210" height="139">
<rect width="210" height="139" rx="10" fill="#FFC2D5"/>
</mask>
<g mask="url(#mask0_44_93)">
<path d="M-5.875 69V51.5455H6.70455V55.3636H-1.13636V58.3636H6.05682V62.1818H-1.13636V65.1818H6.67046V69H-5.875ZM13.1797 55.9091L15.0888 59.9659L17.1001 55.9091H21.7706L18.2592 62.4545L21.9411 69H17.3047L15.0888 64.8409L12.9411 69H8.23651L11.9524 62.4545L8.47514 55.9091H13.1797ZM23.4432 73.9091V55.9091H28.1136V58.1932H28.2159C28.3864 57.75 28.6364 57.3437 28.9659 56.9744C29.2955 56.5994 29.7045 56.3011 30.1932 56.0795C30.6818 55.8523 31.25 55.7386 31.8977 55.7386C32.7614 55.7386 33.5824 55.9688 34.3608 56.429C35.1449 56.8892 35.7813 57.6136 36.2699 58.6023C36.7642 59.5909 37.0114 60.875 37.0114 62.4545C37.0114 63.9659 36.7756 65.2187 36.304 66.2131C35.8381 67.2074 35.2131 67.9489 34.429 68.4375C33.6506 68.9261 32.7955 69.1705 31.8636 69.1705C31.25 69.1705 30.7017 69.071 30.2188 68.8722C29.7415 68.6676 29.3324 68.392 28.9915 68.0455C28.6563 67.6932 28.3977 67.2955 28.2159 66.8523H28.1477V73.9091H23.4432ZM28.0455 62.4545C28.0455 63.0909 28.1278 63.642 28.2926 64.108C28.4631 64.5682 28.7017 64.9261 29.0085 65.1818C29.321 65.4318 29.6932 65.5568 30.125 65.5568C30.5568 65.5568 30.9233 65.4347 31.2244 65.1903C31.5313 64.9403 31.7642 64.5852 31.9233 64.125C32.0881 63.6591 32.1705 63.1023 32.1705 62.4545C32.1705 61.8068 32.0881 61.2528 31.9233 60.7926C31.7642 60.3267 31.5313 59.9716 31.2244 59.7273C30.9233 59.4773 30.5568 59.3523 30.125 59.3523C29.6932 59.3523 29.321 59.4773 29.0085 59.7273C28.7017 59.9716 28.4631 60.3267 28.2926 60.7926C28.1278 61.2528 28.0455 61.8068 28.0455 62.4545ZM43.6868 51.5455V69H38.9822V51.5455H43.6868ZM52.3906 69.2386C50.9702 69.2386 49.7543 68.9574 48.7429 68.3949C47.7315 67.8267 46.956 67.0369 46.4162 66.0256C45.8764 65.0085 45.6065 63.8295 45.6065 62.4886C45.6065 61.1477 45.8764 59.9716 46.4162 58.9602C46.956 57.9432 47.7315 57.1534 48.7429 56.5909C49.7543 56.0227 50.9702 55.7386 52.3906 55.7386C53.8111 55.7386 55.027 56.0227 56.0384 56.5909C57.0497 57.1534 57.8253 57.9432 58.3651 58.9602C58.9048 59.9716 59.1747 61.1477 59.1747 62.4886C59.1747 63.8295 58.9048 65.0085 58.3651 66.0256C57.8253 67.0369 57.0497 67.8267 56.0384 68.3949C55.027 68.9574 53.8111 69.2386 52.3906 69.2386ZM52.4247 65.7614C52.8224 65.7614 53.1662 65.6278 53.456 65.3608C53.7457 65.0937 53.9702 64.7131 54.1293 64.2188C54.2884 63.7244 54.3679 63.1364 54.3679 62.4545C54.3679 61.767 54.2884 61.179 54.1293 60.6903C53.9702 60.196 53.7457 59.8153 53.456 59.5483C53.1662 59.2812 52.8224 59.1477 52.4247 59.1477C52.0043 59.1477 51.6435 59.2812 51.3423 59.5483C51.0412 59.8153 50.8111 60.196 50.652 60.6903C50.4929 61.179 50.4134 61.767 50.4134 62.4545C50.4134 63.1364 50.4929 63.7244 50.652 64.2188C50.8111 64.7131 51.0412 65.0937 51.3423 65.3608C51.6435 65.6278 52.0043 65.7614 52.4247 65.7614ZM61.0838 69V55.9091H65.652V58.3977H65.7884C66.027 57.4773 66.4048 56.804 66.9219 56.3778C67.4446 55.9517 68.0554 55.7386 68.7543 55.7386C68.9588 55.7386 69.1605 55.7557 69.3594 55.7898C69.5639 55.8182 69.7599 55.8608 69.9474 55.9176V59.9318C69.7145 59.8523 69.4276 59.7926 69.0866 59.7528C68.7457 59.7131 68.4531 59.6932 68.2088 59.6932C67.7486 59.6932 67.3338 59.7983 66.9645 60.0085C66.6009 60.2131 66.3139 60.5028 66.1037 60.8778C65.8935 61.2472 65.7884 61.6818 65.7884 62.1818V69H61.0838ZM77.0128 69.2386C75.6151 69.2386 74.4105 68.9716 73.3991 68.4375C72.3935 67.8977 71.6179 67.125 71.0724 66.1193C70.5327 65.108 70.2628 63.8977 70.2628 62.4886C70.2628 61.1364 70.5355 59.9545 71.081 58.9432C71.6264 57.9318 72.3963 57.1449 73.3906 56.5824C74.3849 56.0199 75.5582 55.7386 76.9105 55.7386C77.8991 55.7386 78.794 55.892 79.5952 56.1989C80.3963 56.5057 81.081 56.9517 81.6491 57.5369C82.2173 58.1165 82.6548 58.821 82.9616 59.6506C83.2685 60.4801 83.4219 61.4148 83.4219 62.4545V63.5455H71.7287V60.9545H79.0923C79.0866 60.5795 78.9901 60.25 78.8026 59.9659C78.6207 59.6761 78.3736 59.4517 78.0611 59.2926C77.7543 59.1278 77.4048 59.0455 77.0128 59.0455C76.6321 59.0455 76.2827 59.1278 75.9645 59.2926C75.6463 59.4517 75.3906 59.6733 75.1974 59.9574C75.0099 60.2415 74.9105 60.5739 74.8991 60.9545V63.75C74.8991 64.1705 74.9872 64.5455 75.1634 64.875C75.3395 65.2045 75.5923 65.4631 75.9219 65.6506C76.2514 65.8381 76.6491 65.9318 77.1151 65.9318C77.4389 65.9318 77.7344 65.8864 78.0014 65.7955C78.2741 65.7045 78.5071 65.5739 78.7003 65.4034C78.8935 65.2273 79.0355 65.017 79.1264 64.7727H83.4219C83.2741 65.6818 82.9247 66.4716 82.3736 67.142C81.8224 67.8068 81.0923 68.3239 80.1832 68.6932C79.2798 69.0568 78.223 69.2386 77.0128 69.2386ZM94.8359 69V51.5455H107.109V55.3636H99.5746V58.3636H106.359V62.1818H99.5746V69H94.8359ZM114.232 69.2386C112.834 69.2386 111.629 68.9716 110.618 68.4375C109.612 67.8977 108.837 67.125 108.291 66.1193C107.751 65.108 107.482 63.8977 107.482 62.4886C107.482 61.1364 107.754 59.9545 108.3 58.9432C108.845 57.9318 109.615 57.1449 110.609 56.5824C111.604 56.0199 112.777 55.7386 114.129 55.7386C115.118 55.7386 116.013 55.892 116.814 56.1989C117.615 56.5057 118.3 56.9517 118.868 57.5369C119.436 58.1165 119.874 58.821 120.18 59.6506C120.487 60.4801 120.641 61.4148 120.641 62.4545V63.5455H108.947V60.9545H116.311C116.305 60.5795 116.209 60.25 116.021 59.9659C115.839 59.6761 115.592 59.4517 115.28 59.2926C114.973 59.1278 114.624 59.0455 114.232 59.0455C113.851 59.0455 113.501 59.1278 113.183 59.2926C112.865 59.4517 112.609 59.6733 112.416 59.9574C112.229 60.2415 112.129 60.5739 112.118 60.9545V63.75C112.118 64.1705 112.206 64.5455 112.382 64.875C112.558 65.2045 112.811 65.4631 113.141 65.6506C113.47 65.8381 113.868 65.9318 114.334 65.9318C114.658 65.9318 114.953 65.8864 115.22 65.7955C115.493 65.7045 115.726 65.5739 115.919 65.4034C116.112 65.2273 116.254 65.017 116.345 64.7727H120.641C120.493 65.6818 120.143 66.4716 119.592 67.142C119.041 67.8068 118.311 68.3239 117.402 68.6932C116.499 69.0568 115.442 69.2386 114.232 69.2386ZM126.208 69.2045C125.373 69.2045 124.634 69.0682 123.992 68.7955C123.356 68.517 122.856 68.0966 122.492 67.5341C122.129 66.9716 121.947 66.2557 121.947 65.3864C121.947 64.6705 122.069 64.0597 122.313 63.554C122.558 63.0426 122.898 62.625 123.336 62.3011C123.773 61.9773 124.282 61.7301 124.862 61.5597C125.447 61.3892 126.077 61.2784 126.754 61.2273C127.487 61.1705 128.075 61.1023 128.518 61.0227C128.967 60.9375 129.29 60.821 129.489 60.6733C129.688 60.5199 129.788 60.3182 129.788 60.0682V60.0341C129.788 59.6932 129.657 59.4318 129.396 59.25C129.134 59.0682 128.799 58.9773 128.39 58.9773C127.941 58.9773 127.575 59.0767 127.29 59.2756C127.012 59.4687 126.844 59.767 126.788 60.1705H122.458C122.515 59.375 122.768 58.642 123.217 57.9716C123.671 57.2955 124.333 56.7557 125.202 56.3523C126.072 55.9432 127.157 55.7386 128.458 55.7386C129.396 55.7386 130.237 55.8494 130.981 56.071C131.725 56.2869 132.359 56.5909 132.881 56.983C133.404 57.3693 133.802 57.8239 134.075 58.3466C134.353 58.8636 134.492 59.4261 134.492 60.0341V69H130.094V67.1591H129.992C129.731 67.6477 129.413 68.0426 129.038 68.3438C128.668 68.6449 128.245 68.8636 127.768 69C127.296 69.1364 126.776 69.2045 126.208 69.2045ZM127.742 66.2386C128.1 66.2386 128.435 66.1648 128.748 66.017C129.066 65.8693 129.325 65.6562 129.523 65.3778C129.722 65.0994 129.822 64.7614 129.822 64.3636V63.2727C129.697 63.3239 129.563 63.3722 129.421 63.4176C129.285 63.4631 129.137 63.5057 128.978 63.5455C128.825 63.5852 128.66 63.6222 128.484 63.6562C128.313 63.6903 128.134 63.7216 127.947 63.75C127.583 63.8068 127.285 63.9006 127.052 64.0312C126.825 64.1562 126.654 64.3125 126.54 64.5C126.433 64.6818 126.379 64.8864 126.379 65.1136C126.379 65.4773 126.506 65.7557 126.762 65.9489C127.018 66.142 127.344 66.2386 127.742 66.2386ZM148.706 60.1705H144.376C144.354 59.9034 144.26 59.6733 144.095 59.4801C143.93 59.2869 143.717 59.1392 143.456 59.0369C143.2 58.929 142.916 58.875 142.604 58.875C142.2 58.875 141.854 58.9489 141.564 59.0966C141.274 59.2443 141.132 59.4545 141.138 59.7273C141.132 59.9205 141.214 60.0994 141.385 60.2642C141.561 60.429 141.899 60.5568 142.399 60.6477L145.058 61.125C146.399 61.3693 147.396 61.7812 148.05 62.3608C148.709 62.9347 149.041 63.7045 149.047 64.6705C149.041 65.6023 148.763 66.4119 148.212 67.0994C147.666 67.7812 146.919 68.3097 145.97 68.6847C145.027 69.054 143.95 69.2386 142.74 69.2386C140.74 69.2386 139.175 68.8295 138.044 68.0114C136.919 67.1932 136.291 66.1136 136.161 64.7727H140.831C140.893 65.1875 141.098 65.5085 141.445 65.7358C141.797 65.9574 142.24 66.0682 142.774 66.0682C143.206 66.0682 143.561 65.9943 143.839 65.8466C144.124 65.6989 144.268 65.4886 144.274 65.2159C144.268 64.9659 144.143 64.767 143.899 64.6193C143.661 64.4716 143.286 64.3523 142.774 64.2614L140.456 63.8523C139.121 63.6193 138.121 63.1761 137.456 62.5227C136.791 61.8693 136.462 61.0284 136.467 60C136.462 59.0909 136.7 58.321 137.183 57.6903C137.672 57.054 138.368 56.571 139.271 56.2415C140.18 55.9062 141.257 55.7386 142.501 55.7386C144.393 55.7386 145.885 56.1307 146.976 56.9148C148.072 57.6989 148.649 58.7841 148.706 60.1705ZM150.849 69V55.9091H155.554V69H150.849ZM153.202 54.5455C152.565 54.5455 152.02 54.3352 151.565 53.9148C151.111 53.4943 150.884 52.9886 150.884 52.3977C150.884 51.8068 151.111 51.3011 151.565 50.8807C152.02 50.4602 152.565 50.25 153.202 50.25C153.844 50.25 154.389 50.4602 154.838 50.8807C155.293 51.3011 155.52 51.8068 155.52 52.3977C155.52 52.9886 155.293 53.4943 154.838 53.9148C154.389 54.3352 153.844 54.5455 153.202 54.5455ZM157.883 69V51.5455H162.587V58.1932H162.656C162.826 57.75 163.076 57.3437 163.406 56.9744C163.735 56.5994 164.144 56.3011 164.633 56.0795C165.121 55.8523 165.69 55.7386 166.337 55.7386C167.201 55.7386 168.022 55.9688 168.8 56.429C169.585 56.8892 170.221 57.6136 170.71 58.6023C171.204 59.5909 171.451 60.875 171.451 62.4545C171.451 63.9659 171.215 65.2187 170.744 66.2131C170.278 67.2074 169.653 67.9489 168.869 68.4375C168.09 68.9261 167.235 69.1705 166.303 69.1705C165.69 69.1705 165.141 69.071 164.658 68.8722C164.181 68.6676 163.772 68.392 163.431 68.0455C163.096 67.6932 162.837 67.2955 162.656 66.8523H162.553V69H157.883ZM162.485 62.4545C162.485 63.0909 162.567 63.642 162.732 64.108C162.903 64.5682 163.141 64.9261 163.448 65.1818C163.761 65.4318 164.133 65.5568 164.565 65.5568C164.996 65.5568 165.363 65.4347 165.664 65.1903C165.971 64.9403 166.204 64.5852 166.363 64.125C166.528 63.6591 166.61 63.1023 166.61 62.4545C166.61 61.8068 166.528 61.2528 166.363 60.7926C166.204 60.3267 165.971 59.9716 165.664 59.7273C165.363 59.4773 164.996 59.3523 164.565 59.3523C164.133 59.3523 163.761 59.4773 163.448 59.7273C163.141 59.9716 162.903 60.3267 162.732 60.7926C162.567 61.2528 162.485 61.8068 162.485 62.4545ZM173.42 69V55.9091H178.124V69H173.42ZM175.772 54.5455C175.136 54.5455 174.59 54.3352 174.136 53.9148C173.681 53.4943 173.454 52.9886 173.454 52.3977C173.454 51.8068 173.681 51.3011 174.136 50.8807C174.59 50.4602 175.136 50.25 175.772 50.25C176.414 50.25 176.96 50.4602 177.408 50.8807C177.863 51.3011 178.09 51.8068 178.09 52.3977C178.09 52.9886 177.863 53.4943 177.408 53.9148C176.96 54.3352 176.414 54.5455 175.772 54.5455ZM185.226 51.5455V69H180.521V51.5455H185.226ZM187.623 69V55.9091H192.327V69H187.623ZM189.975 54.5455C189.339 54.5455 188.793 54.3352 188.339 53.9148C187.884 53.4943 187.657 52.9886 187.657 52.3977C187.657 51.8068 187.884 51.3011 188.339 50.8807C188.793 50.4602 189.339 50.25 189.975 50.25C190.617 50.25 191.163 50.4602 191.612 50.8807C192.066 51.3011 192.293 51.8068 192.293 52.3977C192.293 52.9886 192.066 53.4943 191.612 53.9148C191.163 54.3352 190.617 54.5455 189.975 54.5455ZM202.531 55.9091V59.3182H193.906V55.9091H202.531ZM195.577 52.7727H200.281V64.7898C200.281 64.9716 200.312 65.125 200.375 65.25C200.438 65.3693 200.534 65.4602 200.665 65.5227C200.795 65.5795 200.963 65.608 201.168 65.608C201.31 65.608 201.474 65.5909 201.662 65.5568C201.855 65.5227 201.997 65.4943 202.088 65.4716L202.77 68.7784C202.56 68.8409 202.259 68.9176 201.866 69.0085C201.48 69.0994 201.02 69.1591 200.486 69.1875C199.406 69.2443 198.5 69.1335 197.767 68.8551C197.034 68.571 196.483 68.125 196.114 67.517C195.744 66.9091 195.565 66.1477 195.577 65.233V52.7727ZM207.315 73.9091C206.775 73.9091 206.261 73.8665 205.772 73.7812C205.283 73.7017 204.854 73.5909 204.485 73.4489L205.508 70.108C205.894 70.2443 206.246 70.3324 206.565 70.3722C206.888 70.4119 207.164 70.3892 207.391 70.304C207.624 70.2188 207.792 70.0568 207.894 69.8182L207.996 69.5795L203.394 55.9091H208.303L210.417 64.9773H210.553L212.701 55.9091H217.644L212.871 70.0909C212.633 70.8125 212.286 71.4602 211.832 72.0341C211.383 72.6136 210.792 73.071 210.059 73.4062C209.326 73.7415 208.411 73.9091 207.315 73.9091Z" fill="white" fill-opacity="0.39"/>
<g filter="url(#filter0_d_44_93)">
<path d="M105 46C118.526 46 131.92 48.6646 144.416 53.8408C156.913 59.0171 168.268 66.6035 177.832 76.168C187.396 85.7324 194.983 97.0874 200.159 109.584C205.072 121.446 207.723 134.116 207.979 146.94C208.036 149.764 205.745 152 203 152H177C174.217 152 172.049 149.757 171.973 147.086C171.74 138.94 170.023 130.899 166.9 123.36C163.533 115.232 158.598 107.846 152.376 101.624C146.154 95.4025 138.768 90.4667 130.64 87.0996C122.511 83.7326 113.798 82 105 82C96.2015 82 87.4891 83.7326 79.3604 87.0996C71.2315 90.4667 63.8455 95.4025 57.624 101.624C51.4025 107.846 46.4667 115.232 43.0996 123.36C39.977 130.899 38.2601 138.94 38.0273 147.086C37.951 149.757 35.7829 152 33 152H7C4.25463 152 1.96424 149.764 2.02051 146.94L2.05176 145.738C2.44505 133.325 5.08108 121.075 9.84082 109.584C15.0171 97.0874 22.6035 85.7324 32.168 76.168C41.7324 66.6035 53.0874 59.0171 65.584 53.8408C78.0805 48.6646 91.4739 46 105 46Z" fill="white" stroke="white" stroke-width="6"/>
<path d="M105 47.5C118.329 47.5 131.528 50.1257 143.843 55.2266C156.157 60.3274 167.346 67.8035 176.771 77.2285C186.197 86.6535 193.673 97.8429 198.773 110.157C203.486 121.533 206.085 133.664 206.454 145.955C206.53 148.486 204.473 150.5 202 150.5H178C175.499 150.5 173.541 148.482 173.438 146.065C173.095 138.072 171.354 130.192 168.286 122.786C164.844 114.475 159.797 106.924 153.437 100.563C147.076 94.2027 139.525 89.1563 131.214 85.7139C122.903 82.2714 113.996 80.5 105 80.5C96.0045 80.5 87.0969 82.2714 78.7861 85.7139C70.4753 89.1563 62.9243 94.2027 56.5635 100.563C50.2027 106.924 45.1563 114.475 41.7139 122.786C38.6463 130.192 36.9053 138.072 36.5625 146.065C36.4587 148.482 34.5009 150.5 32 150.5H8C5.52692 150.5 3.46994 148.486 3.5459 145.955C3.91477 133.664 6.51445 121.533 11.2266 110.157C16.3274 97.8429 23.8035 86.6535 33.2285 77.2285C42.6535 67.8035 53.8429 60.3274 66.1572 55.2266C78.4718 50.1257 91.6708 47.5 105 47.5Z" fill="#F36464" stroke="white" stroke-width="3"/>
<path d="M73.6348 52.4678C94.0204 45.8441 115.98 45.8441 136.365 52.4678C155.784 58.7774 172.825 70.7891 185.288 86.9033C186.837 88.9063 186.357 91.7444 184.356 93.1982L164.939 107.306C162.916 108.775 160.146 108.293 158.642 106.399C150.282 95.8729 138.993 88.0198 126.168 83.8525C112.41 79.3824 97.5898 79.3824 83.832 83.8525C70.0744 88.3227 58.0847 97.0334 49.582 108.736C41.6554 119.646 37.1383 132.635 36.5625 146.065C36.4587 148.482 34.5009 150.5 32 150.5H8C5.52671 150.5 3.46997 148.486 3.5459 145.955C4.1568 125.593 10.8832 105.859 22.8848 89.3398C35.4838 71.9988 53.2492 59.0915 73.6348 52.4678Z" fill="#F6A56E" stroke="white" stroke-width="3"/>
<path d="M89.1221 48.75C103.939 46.4032 119.079 47.3717 133.455 51.5703C135.886 52.2803 137.165 54.859 136.401 57.2109L128.984 80.0361C128.212 82.4146 125.688 83.6538 123.357 83.0059C113.909 80.3776 103.993 79.806 94.2842 81.3438C83.6073 83.0348 73.4818 87.2281 64.7363 93.582C55.9909 99.936 48.8734 108.27 43.9658 117.901C39.503 126.66 36.9827 136.267 36.5625 146.065C36.4587 148.482 34.5009 150.5 32 150.5H8C5.52695 150.5 3.46994 148.486 3.5459 145.955C3.99514 130.985 7.75188 116.287 14.5625 102.92C21.8344 88.648 32.3812 76.2998 45.3398 66.8848C58.2985 57.4698 73.3015 51.2557 89.1221 48.75Z" fill="#FECA2A" stroke="white" stroke-width="3"/>
<path d="M70.7529 53.452C73.1367 52.5976 75.6879 53.9318 76.4521 56.284L83.8682 79.1092C84.641 81.4878 83.3268 83.9738 81.0605 84.8192C68.4658 89.5168 57.5086 97.8271 49.582 108.737C41.6556 119.647 37.1383 132.635 36.5625 146.065C36.4587 148.482 34.501 150.5 32 150.5H8C5.52671 150.5 3.46996 148.486 3.5459 145.955C4.15683 125.593 10.8832 105.858 22.8848 89.3397C34.8864 72.8209 51.5761 60.3252 70.7529 53.452Z" fill="#BFE86C" stroke="white" stroke-width="3"/>
<path d="M21.1318 91.8298C22.5582 89.7376 25.4063 89.3175 27.4072 90.7712L46.8232 104.878C48.8467 106.348 49.2448 109.132 47.9082 111.148C41.02 121.537 37.0964 133.611 36.5625 146.065C36.4588 148.482 34.501 150.5 32 150.5H8C5.52671 150.5 3.46996 148.486 3.5459 145.955C4.12643 126.606 10.2286 107.824 21.1318 91.8298Z" fill="#60E281" stroke="white" stroke-width="3"/>
<path d="M105 146.167C108.958 146.167 112.167 142.958 112.167 139C112.167 135.042 108.958 131.833 105 131.833C101.042 131.833 97.8333 135.042 97.8333 139C97.8333 142.958 101.042 146.167 105 146.167Z" fill="white"/>
<path fill-rule="evenodd" clip-rule="evenodd" d="M119.479 132.183L122.435 120.95L110.689 124.041C108.921 123.368 107.004 123 105 123C96.1634 123 89 130.163 89 139C89 147.837 96.1634 155 105 155C113.837 155 121 147.837 121 139C121 136.562 120.455 134.251 119.479 132.183ZM105 151.5C111.904 151.5 117.5 145.904 117.5 139C117.5 132.096 111.904 126.5 105 126.5C98.0964 126.5 92.5 132.096 92.5 139C92.5 145.904 98.0964 151.5 105 151.5Z" fill="white"/>
</g>
<path d="M-6.875 48V30.5455H5.70455V34.3636H-2.13636V37.3636H5.05682V41.1818H-2.13636V44.1818H5.67046V48H-6.875ZM12.1797 34.9091L14.0888 38.9659L16.1001 34.9091H20.7706L17.2592 41.4545L20.9411 48H16.3047L14.0888 43.8409L11.9411 48H7.23651L10.9524 41.4545L7.47514 34.9091H12.1797ZM22.4432 52.9091V34.9091H27.1136V37.1932H27.2159C27.3864 36.75 27.6364 36.3437 27.9659 35.9744C28.2955 35.5994 28.7045 35.3011 29.1932 35.0795C29.6818 34.8523 30.25 34.7386 30.8977 34.7386C31.7614 34.7386 32.5824 34.9688 33.3608 35.429C34.1449 35.8892 34.7813 36.6136 35.2699 37.6023C35.7642 38.5909 36.0114 39.875 36.0114 41.4545C36.0114 42.9659 35.7756 44.2187 35.304 45.2131C34.8381 46.2074 34.2131 46.9489 33.429 47.4375C32.6506 47.9261 31.7955 48.1705 30.8636 48.1705C30.25 48.1705 29.7017 48.071 29.2188 47.8722C28.7415 47.6676 28.3324 47.392 27.9915 47.0455C27.6563 46.6932 27.3977 46.2955 27.2159 45.8523H27.1477V52.9091H22.4432ZM27.0455 41.4545C27.0455 42.0909 27.1278 42.642 27.2926 43.108C27.4631 43.5682 27.7017 43.9261 28.0085 44.1818C28.321 44.4318 28.6932 44.5568 29.125 44.5568C29.5568 44.5568 29.9233 44.4347 30.2244 44.1903C30.5313 43.9403 30.7642 43.5852 30.9233 43.125C31.0881 42.6591 31.1705 42.1023 31.1705 41.4545C31.1705 40.8068 31.0881 40.2528 30.9233 39.7926C30.7642 39.3267 30.5313 38.9716 30.2244 38.7273C29.9233 38.4773 29.5568 38.3523 29.125 38.3523C28.6932 38.3523 28.321 38.4773 28.0085 38.7273C27.7017 38.9716 27.4631 39.3267 27.2926 39.7926C27.1278 40.2528 27.0455 40.8068 27.0455 41.4545ZM42.6868 30.5455V48H37.9822V30.5455H42.6868ZM51.3906 48.2386C49.9702 48.2386 48.7543 47.9574 47.7429 47.3949C46.7315 46.8267 45.956 46.0369 45.4162 45.0256C44.8764 44.0085 44.6065 42.8295 44.6065 41.4886C44.6065 40.1477 44.8764 38.9716 45.4162 37.9602C45.956 36.9432 46.7315 36.1534 47.7429 35.5909C48.7543 35.0227 49.9702 34.7386 51.3906 34.7386C52.8111 34.7386 54.027 35.0227 55.0384 35.5909C56.0497 36.1534 56.8253 36.9432 57.3651 37.9602C57.9048 38.9716 58.1747 40.1477 58.1747 41.4886C58.1747 42.8295 57.9048 44.0085 57.3651 45.0256C56.8253 46.0369 56.0497 46.8267 55.0384 47.3949C54.027 47.9574 52.8111 48.2386 51.3906 48.2386ZM51.4247 44.7614C51.8224 44.7614 52.1662 44.6278 52.456 44.3608C52.7457 44.0937 52.9702 43.7131 53.1293 43.2188C53.2884 42.7244 53.3679 42.1364 53.3679 41.4545C53.3679 40.767 53.2884 40.179 53.1293 39.6903C52.9702 39.196 52.7457 38.8153 52.456 38.5483C52.1662 38.2812 51.8224 38.1477 51.4247 38.1477C51.0043 38.1477 50.6435 38.2812 50.3423 38.5483C50.0412 38.8153 49.8111 39.196 49.652 39.6903C49.4929 40.179 49.4134 40.767 49.4134 41.4545C49.4134 42.1364 49.4929 42.7244 49.652 43.2188C49.8111 43.7131 50.0412 44.0937 50.3423 44.3608C50.6435 44.6278 51.0043 44.7614 51.4247 44.7614ZM60.0838 48V34.9091H64.652V37.3977H64.7884C65.027 36.4773 65.4048 35.804 65.9219 35.3778C66.4446 34.9517 67.0554 34.7386 67.7543 34.7386C67.9588 34.7386 68.1605 34.7557 68.3594 34.7898C68.5639 34.8182 68.7599 34.8608 68.9474 34.9176V38.9318C68.7145 38.8523 68.4276 38.7926 68.0866 38.7528C67.7457 38.7131 67.4531 38.6932 67.2088 38.6932C66.7486 38.6932 66.3338 38.7983 65.9645 39.0085C65.6009 39.2131 65.3139 39.5028 65.1037 39.8778C64.8935 40.2472 64.7884 40.6818 64.7884 41.1818V48H60.0838ZM76.0128 48.2386C74.6151 48.2386 73.4105 47.9716 72.3991 47.4375C71.3935 46.8977 70.6179 46.125 70.0724 45.1193C69.5327 44.108 69.2628 42.8977 69.2628 41.4886C69.2628 40.1364 69.5355 38.9545 70.081 37.9432C70.6264 36.9318 71.3963 36.1449 72.3906 35.5824C73.3849 35.0199 74.5582 34.7386 75.9105 34.7386C76.8991 34.7386 77.794 34.892 78.5952 35.1989C79.3963 35.5057 80.081 35.9517 80.6491 36.5369C81.2173 37.1165 81.6548 37.821 81.9616 38.6506C82.2685 39.4801 82.4219 40.4148 82.4219 41.4545V42.5455H70.7287V39.9545H78.0923C78.0866 39.5795 77.9901 39.25 77.8026 38.9659C77.6207 38.6761 77.3736 38.4517 77.0611 38.2926C76.7543 38.1278 76.4048 38.0455 76.0128 38.0455C75.6321 38.0455 75.2827 38.1278 74.9645 38.2926C74.6463 38.4517 74.3906 38.6733 74.1974 38.9574C74.0099 39.2415 73.9105 39.5739 73.8991 39.9545V42.75C73.8991 43.1705 73.9872 43.5455 74.1634 43.875C74.3395 44.2045 74.5923 44.4631 74.9219 44.6506C75.2514 44.8381 75.6491 44.9318 76.1151 44.9318C76.4389 44.9318 76.7344 44.8864 77.0014 44.7955C77.2741 44.7045 77.5071 44.5739 77.7003 44.4034C77.8935 44.2273 78.0355 44.017 78.1264 43.7727H82.4219C82.2741 44.6818 81.9247 45.4716 81.3736 46.142C80.8224 46.8068 80.0923 47.3239 79.1832 47.6932C78.2798 48.0568 77.223 48.2386 76.0128 48.2386ZM93.8359 48V30.5455H106.109V34.3636H98.5746V37.3636H105.359V41.1818H98.5746V48H93.8359ZM113.232 48.2386C111.834 48.2386 110.629 47.9716 109.618 47.4375C108.612 46.8977 107.837 46.125 107.291 45.1193C106.751 44.108 106.482 42.8977 106.482 41.4886C106.482 40.1364 106.754 38.9545 107.3 37.9432C107.845 36.9318 108.615 36.1449 109.609 35.5824C110.604 35.0199 111.777 34.7386 113.129 34.7386C114.118 34.7386 115.013 34.892 115.814 35.1989C116.615 35.5057 117.3 35.9517 117.868 36.5369C118.436 37.1165 118.874 37.821 119.18 38.6506C119.487 39.4801 119.641 40.4148 119.641 41.4545V42.5455H107.947V39.9545H115.311C115.305 39.5795 115.209 39.25 115.021 38.9659C114.839 38.6761 114.592 38.4517 114.28 38.2926C113.973 38.1278 113.624 38.0455 113.232 38.0455C112.851 38.0455 112.501 38.1278 112.183 38.2926C111.865 38.4517 111.609 38.6733 111.416 38.9574C111.229 39.2415 111.129 39.5739 111.118 39.9545V42.75C111.118 43.1705 111.206 43.5455 111.382 43.875C111.558 44.2045 111.811 44.4631 112.141 44.6506C112.47 44.8381 112.868 44.9318 113.334 44.9318C113.658 44.9318 113.953 44.8864 114.22 44.7955C114.493 44.7045 114.726 44.5739 114.919 44.4034C115.112 44.2273 115.254 44.017 115.345 43.7727H119.641C119.493 44.6818 119.143 45.4716 118.592 46.142C118.041 46.8068 117.311 47.3239 116.402 47.6932C115.499 48.0568 114.442 48.2386 113.232 48.2386ZM125.208 48.2045C124.373 48.2045 123.634 48.0682 122.992 47.7955C122.356 47.517 121.856 47.0966 121.492 46.5341C121.129 45.9716 120.947 45.2557 120.947 44.3864C120.947 43.6705 121.069 43.0597 121.313 42.554C121.558 42.0426 121.898 41.625 122.336 41.3011C122.773 40.9773 123.282 40.7301 123.862 40.5597C124.447 40.3892 125.077 40.2784 125.754 40.2273C126.487 40.1705 127.075 40.1023 127.518 40.0227C127.967 39.9375 128.29 39.821 128.489 39.6733C128.688 39.5199 128.788 39.3182 128.788 39.0682V39.0341C128.788 38.6932 128.657 38.4318 128.396 38.25C128.134 38.0682 127.799 37.9773 127.39 37.9773C126.941 37.9773 126.575 38.0767 126.29 38.2756C126.012 38.4687 125.844 38.767 125.788 39.1705H121.458C121.515 38.375 121.768 37.642 122.217 36.9716C122.671 36.2955 123.333 35.7557 124.202 35.3523C125.072 34.9432 126.157 34.7386 127.458 34.7386C128.396 34.7386 129.237 34.8494 129.981 35.071C130.725 35.2869 131.359 35.5909 131.881 35.983C132.404 36.3693 132.802 36.8239 133.075 37.3466C133.353 37.8636 133.492 38.4261 133.492 39.0341V48H129.094V46.1591H128.992C128.731 46.6477 128.413 47.0426 128.038 47.3438C127.668 47.6449 127.245 47.8636 126.768 48C126.296 48.1364 125.776 48.2045 125.208 48.2045ZM126.742 45.2386C127.1 45.2386 127.435 45.1648 127.748 45.017C128.066 44.8693 128.325 44.6562 128.523 44.3778C128.722 44.0994 128.822 43.7614 128.822 43.3636V42.2727C128.697 42.3239 128.563 42.3722 128.421 42.4176C128.285 42.4631 128.137 42.5057 127.978 42.5455C127.825 42.5852 127.66 42.6222 127.484 42.6562C127.313 42.6903 127.134 42.7216 126.947 42.75C126.583 42.8068 126.285 42.9006 126.052 43.0312C125.825 43.1562 125.654 43.3125 125.54 43.5C125.433 43.6818 125.379 43.8864 125.379 44.1136C125.379 44.4773 125.506 44.7557 125.762 44.9489C126.018 45.142 126.344 45.2386 126.742 45.2386ZM147.706 39.1705H143.376C143.354 38.9034 143.26 38.6733 143.095 38.4801C142.93 38.2869 142.717 38.1392 142.456 38.0369C142.2 37.929 141.916 37.875 141.604 37.875C141.2 37.875 140.854 37.9489 140.564 38.0966C140.274 38.2443 140.132 38.4545 140.138 38.7273C140.132 38.9205 140.214 39.0994 140.385 39.2642C140.561 39.429 140.899 39.5568 141.399 39.6477L144.058 40.125C145.399 40.3693 146.396 40.7812 147.05 41.3608C147.709 41.9347 148.041 42.7045 148.047 43.6705C148.041 44.6023 147.763 45.4119 147.212 46.0994C146.666 46.7812 145.919 47.3097 144.97 47.6847C144.027 48.054 142.95 48.2386 141.74 48.2386C139.74 48.2386 138.175 47.8295 137.044 47.0114C135.919 46.1932 135.291 45.1136 135.161 43.7727H139.831C139.893 44.1875 140.098 44.5085 140.445 44.7358C140.797 44.9574 141.24 45.0682 141.774 45.0682C142.206 45.0682 142.561 44.9943 142.839 44.8466C143.124 44.6989 143.268 44.4886 143.274 44.2159C143.268 43.9659 143.143 43.767 142.899 43.6193C142.661 43.4716 142.286 43.3523 141.774 43.2614L139.456 42.8523C138.121 42.6193 137.121 42.1761 136.456 41.5227C135.791 40.8693 135.462 40.0284 135.467 39C135.462 38.0909 135.7 37.321 136.183 36.6903C136.672 36.054 137.368 35.571 138.271 35.2415C139.18 34.9062 140.257 34.7386 141.501 34.7386C143.393 34.7386 144.885 35.1307 145.976 35.9148C147.072 36.6989 147.649 37.7841 147.706 39.1705ZM149.849 48V34.9091H154.554V48H149.849ZM152.202 33.5455C151.565 33.5455 151.02 33.3352 150.565 32.9148C150.111 32.4943 149.884 31.9886 149.884 31.3977C149.884 30.8068 150.111 30.3011 150.565 29.8807C151.02 29.4602 151.565 29.25 152.202 29.25C152.844 29.25 153.389 29.4602 153.838 29.8807C154.293 30.3011 154.52 30.8068 154.52 31.3977C154.52 31.9886 154.293 32.4943 153.838 32.9148C153.389 33.3352 152.844 33.5455 152.202 33.5455ZM156.883 48V30.5455H161.587V37.1932H161.656C161.826 36.75 162.076 36.3437 162.406 35.9744C162.735 35.5994 163.144 35.3011 163.633 35.0795C164.121 34.8523 164.69 34.7386 165.337 34.7386C166.201 34.7386 167.022 34.9688 167.8 35.429C168.585 35.8892 169.221 36.6136 169.71 37.6023C170.204 38.5909 170.451 39.875 170.451 41.4545C170.451 42.9659 170.215 44.2187 169.744 45.2131C169.278 46.2074 168.653 46.9489 167.869 47.4375C167.09 47.9261 166.235 48.1705 165.303 48.1705C164.69 48.1705 164.141 48.071 163.658 47.8722C163.181 47.6676 162.772 47.392 162.431 47.0455C162.096 46.6932 161.837 46.2955 161.656 45.8523H161.553V48H156.883ZM161.485 41.4545C161.485 42.0909 161.567 42.642 161.732 43.108C161.903 43.5682 162.141 43.9261 162.448 44.1818C162.761 44.4318 163.133 44.5568 163.565 44.5568C163.996 44.5568 164.363 44.4347 164.664 44.1903C164.971 43.9403 165.204 43.5852 165.363 43.125C165.528 42.6591 165.61 42.1023 165.61 41.4545C165.61 40.8068 165.528 40.2528 165.363 39.7926C165.204 39.3267 164.971 38.9716 164.664 38.7273C164.363 38.4773 163.996 38.3523 163.565 38.3523C163.133 38.3523 162.761 38.4773 162.448 38.7273C162.141 38.9716 161.903 39.3267 161.732 39.7926C161.567 40.2528 161.485 40.8068 161.485 41.4545ZM172.42 48V34.9091H177.124V48H172.42ZM174.772 33.5455C174.136 33.5455 173.59 33.3352 173.136 32.9148C172.681 32.4943 172.454 31.9886 172.454 31.3977C172.454 30.8068 172.681 30.3011 173.136 29.8807C173.59 29.4602 174.136 29.25 174.772 29.25C175.414 29.25 175.96 29.4602 176.408 29.8807C176.863 30.3011 177.09 30.8068 177.09 31.3977C177.09 31.9886 176.863 32.4943 176.408 32.9148C175.96 33.3352 175.414 33.5455 174.772 33.5455ZM184.226 30.5455V48H179.521V30.5455H184.226ZM186.623 48V34.9091H191.327V48H186.623ZM188.975 33.5455C188.339 33.5455 187.793 33.3352 187.339 32.9148C186.884 32.4943 186.657 31.9886 186.657 31.3977C186.657 30.8068 186.884 30.3011 187.339 29.8807C187.793 29.4602 188.339 29.25 188.975 29.25C189.617 29.25 190.163 29.4602 190.612 29.8807C191.066 30.3011 191.293 30.8068 191.293 31.3977C191.293 31.9886 191.066 32.4943 190.612 32.9148C190.163 33.3352 189.617 33.5455 188.975 33.5455ZM201.531 34.9091V38.3182H192.906V34.9091H201.531ZM194.577 31.7727H199.281V43.7898C199.281 43.9716 199.312 44.125 199.375 44.25C199.438 44.3693 199.534 44.4602 199.665 44.5227C199.795 44.5795 199.963 44.608 200.168 44.608C200.31 44.608 200.474 44.5909 200.662 44.5568C200.855 44.5227 200.997 44.4943 201.088 44.4716L201.77 47.7784C201.56 47.8409 201.259 47.9176 200.866 48.0085C200.48 48.0994 200.02 48.1591 199.486 48.1875C198.406 48.2443 197.5 48.1335 196.767 47.8551C196.034 47.571 195.483 47.125 195.114 46.517C194.744 45.9091 194.565 45.1477 194.577 44.233V31.7727ZM206.315 52.9091C205.775 52.9091 205.261 52.8665 204.772 52.7812C204.283 52.7017 203.854 52.5909 203.485 52.4489L204.508 49.108C204.894 49.2443 205.246 49.3324 205.565 49.3722C205.888 49.4119 206.164 49.3892 206.391 49.304C206.624 49.2188 206.792 49.0568 206.894 48.8182L206.996 48.5795L202.394 34.9091H207.303L209.417 43.9773H209.553L211.701 34.9091H216.644L211.871 49.0909C211.633 49.8125 211.286 50.4602 210.832 51.0341C210.383 51.6136 209.792 52.071 209.059 52.4062C208.326 52.7415 207.411 52.9091 206.315 52.9091Z" fill="white" fill-opacity="0.7"/>
<path d="M-5.875 27V9.54545H6.70455V13.3636H-1.13636V16.3636H6.05682V20.1818H-1.13636V23.1818H6.67046V27H-5.875ZM13.1797 13.9091L15.0888 17.9659L17.1001 13.9091H21.7706L18.2592 20.4545L21.9411 27H17.3047L15.0888 22.8409L12.9411 27H8.23651L11.9524 20.4545L8.47514 13.9091H13.1797ZM23.4432 31.9091V13.9091H28.1136V16.1932H28.2159C28.3864 15.75 28.6364 15.3437 28.9659 14.9744C29.2955 14.5994 29.7045 14.3011 30.1932 14.0795C30.6818 13.8523 31.25 13.7386 31.8977 13.7386C32.7614 13.7386 33.5824 13.9688 34.3608 14.429C35.1449 14.8892 35.7813 15.6136 36.2699 16.6023C36.7642 17.5909 37.0114 18.875 37.0114 20.4545C37.0114 21.9659 36.7756 23.2187 36.304 24.2131C35.8381 25.2074 35.2131 25.9489 34.429 26.4375C33.6506 26.9261 32.7955 27.1705 31.8636 27.1705C31.25 27.1705 30.7017 27.071 30.2188 26.8722C29.7415 26.6676 29.3324 26.392 28.9915 26.0455C28.6563 25.6932 28.3977 25.2955 28.2159 24.8523H28.1477V31.9091H23.4432ZM28.0455 20.4545C28.0455 21.0909 28.1278 21.642 28.2926 22.108C28.4631 22.5682 28.7017 22.9261 29.0085 23.1818C29.321 23.4318 29.6932 23.5568 30.125 23.5568C30.5568 23.5568 30.9233 23.4347 31.2244 23.1903C31.5313 22.9403 31.7642 22.5852 31.9233 22.125C32.0881 21.6591 32.1705 21.1023 32.1705 20.4545C32.1705 19.8068 32.0881 19.2528 31.9233 18.7926C31.7642 18.3267 31.5313 17.9716 31.2244 17.7273C30.9233 17.4773 30.5568 17.3523 30.125 17.3523C29.6932 17.3523 29.321 17.4773 29.0085 17.7273C28.7017 17.9716 28.4631 18.3267 28.2926 18.7926C28.1278 19.2528 28.0455 19.8068 28.0455 20.4545ZM43.6868 9.54545V27H38.9822V9.54545H43.6868ZM52.3906 27.2386C50.9702 27.2386 49.7543 26.9574 48.7429 26.3949C47.7315 25.8267 46.956 25.0369 46.4162 24.0256C45.8764 23.0085 45.6065 21.8295 45.6065 20.4886C45.6065 19.1477 45.8764 17.9716 46.4162 16.9602C46.956 15.9432 47.7315 15.1534 48.7429 14.5909C49.7543 14.0227 50.9702 13.7386 52.3906 13.7386C53.8111 13.7386 55.027 14.0227 56.0384 14.5909C57.0497 15.1534 57.8253 15.9432 58.3651 16.9602C58.9048 17.9716 59.1747 19.1477 59.1747 20.4886C59.1747 21.8295 58.9048 23.0085 58.3651 24.0256C57.8253 25.0369 57.0497 25.8267 56.0384 26.3949C55.027 26.9574 53.8111 27.2386 52.3906 27.2386ZM52.4247 23.7614C52.8224 23.7614 53.1662 23.6278 53.456 23.3608C53.7457 23.0937 53.9702 22.7131 54.1293 22.2188C54.2884 21.7244 54.3679 21.1364 54.3679 20.4545C54.3679 19.767 54.2884 19.179 54.1293 18.6903C53.9702 18.196 53.7457 17.8153 53.456 17.5483C53.1662 17.2812 52.8224 17.1477 52.4247 17.1477C52.0043 17.1477 51.6435 17.2812 51.3423 17.5483C51.0412 17.8153 50.8111 18.196 50.652 18.6903C50.4929 19.179 50.4134 19.767 50.4134 20.4545C50.4134 21.1364 50.4929 21.7244 50.652 22.2188C50.8111 22.7131 51.0412 23.0937 51.3423 23.3608C51.6435 23.6278 52.0043 23.7614 52.4247 23.7614ZM61.0838 27V13.9091H65.652V16.3977H65.7884C66.027 15.4773 66.4048 14.804 66.9219 14.3778C67.4446 13.9517 68.0554 13.7386 68.7543 13.7386C68.9588 13.7386 69.1605 13.7557 69.3594 13.7898C69.5639 13.8182 69.7599 13.8608 69.9474 13.9176V17.9318C69.7145 17.8523 69.4276 17.7926 69.0866 17.7528C68.7457 17.7131 68.4531 17.6932 68.2088 17.6932C67.7486 17.6932 67.3338 17.7983 66.9645 18.0085C66.6009 18.2131 66.3139 18.5028 66.1037 18.8778C65.8935 19.2472 65.7884 19.6818 65.7884 20.1818V27H61.0838ZM77.0128 27.2386C75.6151 27.2386 74.4105 26.9716 73.3991 26.4375C72.3935 25.8977 71.6179 25.125 71.0724 24.1193C70.5327 23.108 70.2628 21.8977 70.2628 20.4886C70.2628 19.1364 70.5355 17.9545 71.081 16.9432C71.6264 15.9318 72.3963 15.1449 73.3906 14.5824C74.3849 14.0199 75.5582 13.7386 76.9105 13.7386C77.8991 13.7386 78.794 13.892 79.5952 14.1989C80.3963 14.5057 81.081 14.9517 81.6491 15.5369C82.2173 16.1165 82.6548 16.821 82.9616 17.6506C83.2685 18.4801 83.4219 19.4148 83.4219 20.4545V21.5455H71.7287V18.9545H79.0923C79.0866 18.5795 78.9901 18.25 78.8026 17.9659C78.6207 17.6761 78.3736 17.4517 78.0611 17.2926C77.7543 17.1278 77.4048 17.0455 77.0128 17.0455C76.6321 17.0455 76.2827 17.1278 75.9645 17.2926C75.6463 17.4517 75.3906 17.6733 75.1974 17.9574C75.0099 18.2415 74.9105 18.5739 74.8991 18.9545V21.75C74.8991 22.1705 74.9872 22.5455 75.1634 22.875C75.3395 23.2045 75.5923 23.4631 75.9219 23.6506C76.2514 23.8381 76.6491 23.9318 77.1151 23.9318C77.4389 23.9318 77.7344 23.8864 78.0014 23.7955C78.2741 23.7045 78.5071 23.5739 78.7003 23.4034C78.8935 23.2273 79.0355 23.017 79.1264 22.7727H83.4219C83.2741 23.6818 82.9247 24.4716 82.3736 25.142C81.8224 25.8068 81.0923 26.3239 80.1832 26.6932C79.2798 27.0568 78.223 27.2386 77.0128 27.2386ZM94.8359 27V9.54545H107.109V13.3636H99.5746V16.3636H106.359V20.1818H99.5746V27H94.8359ZM114.232 27.2386C112.834 27.2386 111.629 26.9716 110.618 26.4375C109.612 25.8977 108.837 25.125 108.291 24.1193C107.751 23.108 107.482 21.8977 107.482 20.4886C107.482 19.1364 107.754 17.9545 108.3 16.9432C108.845 15.9318 109.615 15.1449 110.609 14.5824C111.604 14.0199 112.777 13.7386 114.129 13.7386C115.118 13.7386 116.013 13.892 116.814 14.1989C117.615 14.5057 118.3 14.9517 118.868 15.5369C119.436 16.1165 119.874 16.821 120.18 17.6506C120.487 18.4801 120.641 19.4148 120.641 20.4545V21.5455H108.947V18.9545H116.311C116.305 18.5795 116.209 18.25 116.021 17.9659C115.839 17.6761 115.592 17.4517 115.28 17.2926C114.973 17.1278 114.624 17.0455 114.232 17.0455C113.851 17.0455 113.501 17.1278 113.183 17.2926C112.865 17.4517 112.609 17.6733 112.416 17.9574C112.229 18.2415 112.129 18.5739 112.118 18.9545V21.75C112.118 22.1705 112.206 22.5455 112.382 22.875C112.558 23.2045 112.811 23.4631 113.141 23.6506C113.47 23.8381 113.868 23.9318 114.334 23.9318C114.658 23.9318 114.953 23.8864 115.22 23.7955C115.493 23.7045 115.726 23.5739 115.919 23.4034C116.112 23.2273 116.254 23.017 116.345 22.7727H120.641C120.493 23.6818 120.143 24.4716 119.592 25.142C119.041 25.8068 118.311 26.3239 117.402 26.6932C116.499 27.0568 115.442 27.2386 114.232 27.2386ZM126.208 27.2045C125.373 27.2045 124.634 27.0682 123.992 26.7955C123.356 26.517 122.856 26.0966 122.492 25.5341C122.129 24.9716 121.947 24.2557 121.947 23.3864C121.947 22.6705 122.069 22.0597 122.313 21.554C122.558 21.0426 122.898 20.625 123.336 20.3011C123.773 19.9773 124.282 19.7301 124.862 19.5597C125.447 19.3892 126.077 19.2784 126.754 19.2273C127.487 19.1705 128.075 19.1023 128.518 19.0227C128.967 18.9375 129.29 18.821 129.489 18.6733C129.688 18.5199 129.788 18.3182 129.788 18.0682V18.0341C129.788 17.6932 129.657 17.4318 129.396 17.25C129.134 17.0682 128.799 16.9773 128.39 16.9773C127.941 16.9773 127.575 17.0767 127.29 17.2756C127.012 17.4687 126.844 17.767 126.788 18.1705H122.458C122.515 17.375 122.768 16.642 123.217 15.9716C123.671 15.2955 124.333 14.7557 125.202 14.3523C126.072 13.9432 127.157 13.7386 128.458 13.7386C129.396 13.7386 130.237 13.8494 130.981 14.071C131.725 14.2869 132.359 14.5909 132.881 14.983C133.404 15.3693 133.802 15.8239 134.075 16.3466C134.353 16.8636 134.492 17.4261 134.492 18.0341V27H130.094V25.1591H129.992C129.731 25.6477 129.413 26.0426 129.038 26.3438C128.668 26.6449 128.245 26.8636 127.768 27C127.296 27.1364 126.776 27.2045 126.208 27.2045ZM127.742 24.2386C128.1 24.2386 128.435 24.1648 128.748 24.017C129.066 23.8693 129.325 23.6562 129.523 23.3778C129.722 23.0994 129.822 22.7614 129.822 22.3636V21.2727C129.697 21.3239 129.563 21.3722 129.421 21.4176C129.285 21.4631 129.137 21.5057 128.978 21.5455C128.825 21.5852 128.66 21.6222 128.484 21.6562C128.313 21.6903 128.134 21.7216 127.947 21.75C127.583 21.8068 127.285 21.9006 127.052 22.0312C126.825 22.1562 126.654 22.3125 126.54 22.5C126.433 22.6818 126.379 22.8864 126.379 23.1136C126.379 23.4773 126.506 23.7557 126.762 23.9489C127.018 24.142 127.344 24.2386 127.742 24.2386ZM148.706 18.1705H144.376C144.354 17.9034 144.26 17.6733 144.095 17.4801C143.93 17.2869 143.717 17.1392 143.456 17.0369C143.2 16.929 142.916 16.875 142.604 16.875C142.2 16.875 141.854 16.9489 141.564 17.0966C141.274 17.2443 141.132 17.4545 141.138 17.7273C141.132 17.9205 141.214 18.0994 141.385 18.2642C141.561 18.429 141.899 18.5568 142.399 18.6477L145.058 19.125C146.399 19.3693 147.396 19.7812 148.05 20.3608C148.709 20.9347 149.041 21.7045 149.047 22.6705C149.041 23.6023 148.763 24.4119 148.212 25.0994C147.666 25.7812 146.919 26.3097 145.97 26.6847C145.027 27.054 143.95 27.2386 142.74 27.2386C140.74 27.2386 139.175 26.8295 138.044 26.0114C136.919 25.1932 136.291 24.1136 136.161 22.7727H140.831C140.893 23.1875 141.098 23.5085 141.445 23.7358C141.797 23.9574 142.24 24.0682 142.774 24.0682C143.206 24.0682 143.561 23.9943 143.839 23.8466C144.124 23.6989 144.268 23.4886 144.274 23.2159C144.268 22.9659 144.143 22.767 143.899 22.6193C143.661 22.4716 143.286 22.3523 142.774 22.2614L140.456 21.8523C139.121 21.6193 138.121 21.1761 137.456 20.5227C136.791 19.8693 136.462 19.0284 136.467 18C136.462 17.0909 136.7 16.321 137.183 15.6903C137.672 15.054 138.368 14.571 139.271 14.2415C140.18 13.9062 141.257 13.7386 142.501 13.7386C144.393 13.7386 145.885 14.1307 146.976 14.9148C148.072 15.6989 148.649 16.7841 148.706 18.1705ZM150.849 27V13.9091H155.554V27H150.849ZM153.202 12.5455C152.565 12.5455 152.02 12.3352 151.565 11.9148C151.111 11.4943 150.884 10.9886 150.884 10.3977C150.884 9.80682 151.111 9.30114 151.565 8.88068C152.02 8.46023 152.565 8.25 153.202 8.25C153.844 8.25 154.389 8.46023 154.838 8.88068C155.293 9.30114 155.52 9.80682 155.52 10.3977C155.52 10.9886 155.293 11.4943 154.838 11.9148C154.389 12.3352 153.844 12.5455 153.202 12.5455ZM157.883 27V9.54545H162.587V16.1932H162.656C162.826 15.75 163.076 15.3437 163.406 14.9744C163.735 14.5994 164.144 14.3011 164.633 14.0795C165.121 13.8523 165.69 13.7386 166.337 13.7386C167.201 13.7386 168.022 13.9688 168.8 14.429C169.585 14.8892 170.221 15.6136 170.71 16.6023C171.204 17.5909 171.451 18.875 171.451 20.4545C171.451 21.9659 171.215 23.2187 170.744 24.2131C170.278 25.2074 169.653 25.9489 168.869 26.4375C168.09 26.9261 167.235 27.1705 166.303 27.1705C165.69 27.1705 165.141 27.071 164.658 26.8722C164.181 26.6676 163.772 26.392 163.431 26.0455C163.096 25.6932 162.837 25.2955 162.656 24.8523H162.553V27H157.883ZM162.485 20.4545C162.485 21.0909 162.567 21.642 162.732 22.108C162.903 22.5682 163.141 22.9261 163.448 23.1818C163.761 23.4318 164.133 23.5568 164.565 23.5568C164.996 23.5568 165.363 23.4347 165.664 23.1903C165.971 22.9403 166.204 22.5852 166.363 22.125C166.528 21.6591 166.61 21.1023 166.61 20.4545C166.61 19.8068 166.528 19.2528 166.363 18.7926C166.204 18.3267 165.971 17.9716 165.664 17.7273C165.363 17.4773 164.996 17.3523 164.565 17.3523C164.133 17.3523 163.761 17.4773 163.448 17.7273C163.141 17.9716 162.903 18.3267 162.732 18.7926C162.567 19.2528 162.485 19.8068 162.485 20.4545ZM173.42 27V13.9091H178.124V27H173.42ZM175.772 12.5455C175.136 12.5455 174.59 12.3352 174.136 11.9148C173.681 11.4943 173.454 10.9886 173.454 10.3977C173.454 9.80682 173.681 9.30114 174.136 8.88068C174.59 8.46023 175.136 8.25 175.772 8.25C176.414 8.25 176.96 8.46023 177.408 8.88068C177.863 9.30114 178.09 9.80682 178.09 10.3977C178.09 10.9886 177.863 11.4943 177.408 11.9148C176.96 12.3352 176.414 12.5455 175.772 12.5455ZM185.226 9.54545V27H180.521V9.54545H185.226ZM187.623 27V13.9091H192.327V27H187.623ZM189.975 12.5455C189.339 12.5455 188.793 12.3352 188.339 11.9148C187.884 11.4943 187.657 10.9886 187.657 10.3977C187.657 9.80682 187.884 9.30114 188.339 8.88068C188.793 8.46023 189.339 8.25 189.975 8.25C190.617 8.25 191.163 8.46023 191.612 8.88068C192.066 9.30114 192.293 9.80682 192.293 10.3977C192.293 10.9886 192.066 11.4943 191.612 11.9148C191.163 12.3352 190.617 12.5455 189.975 12.5455ZM202.531 13.9091V17.3182H193.906V13.9091H202.531ZM195.577 10.7727H200.281V22.7898C200.281 22.9716 200.312 23.125 200.375 23.25C200.438 23.3693 200.534 23.4602 200.665 23.5227C200.795 23.5795 200.963 23.608 201.168 23.608C201.31 23.608 201.474 23.5909 201.662 23.5568C201.855 23.5227 201.997 23.4943 202.088 23.4716L202.77 26.7784C202.56 26.8409 202.259 26.9176 201.866 27.0085C201.48 27.0994 201.02 27.1591 200.486 27.1875C199.406 27.2443 198.5 27.1335 197.767 26.8551C197.034 26.571 196.483 26.125 196.114 25.517C195.744 24.9091 195.565 24.1477 195.577 23.233V10.7727ZM207.315 31.9091C206.775 31.9091 206.261 31.8665 205.772 31.7812C205.283 31.7017 204.854 31.5909 204.485 31.4489L205.508 28.108C205.894 28.2443 206.246 28.3324 206.565 28.3722C206.888 28.4119 207.164 28.3892 207.391 28.304C207.624 28.2188 207.792 28.0568 207.894 27.8182L207.996 27.5795L203.394 13.9091H208.303L210.417 22.9773H210.553L212.701 13.9091H217.644L212.871 28.0909C212.633 28.8125 212.286 29.4602 211.832 30.0341C211.383 30.6136 210.792 31.071 210.059 31.4062C209.326 31.7415 208.411 31.9091 207.315 31.9091Z" fill="white"/>
</g>
<defs>
<filter id="filter0_d_44_93" x="-19" y="37" width="248" height="128" filterUnits="userSpaceOnUse" color-interpolation-filters="sRGB">
<feFlood flood-opacity="0" result="BackgroundImageFix"/>
<feColorMatrix in="SourceAlpha" type="matrix" values="0 0 0 0 0 0 0 0 0 0 0 0 0 0 0 0 0 0 127 0" result="hardAlpha"/>
<feOffset dy="2"/>
<feGaussianBlur stdDeviation="2"/>
<feComposite in2="hardAlpha" operator="out"/>
<feColorMatrix type="matrix" values="0 0 0 0 0.945098 0 0 0 0 0.517647 0 0 0 0 0.529412 0 0 0 1 0"/>
<feBlend mode="normal" in2="BackgroundImageFix" result="effect1_dropShadow_44_93"/>
<feBlend mode="normal" in="SourceGraphic" in2="effect1_dropShadow_44_93" result="shape"/>
</filter>
</defs>
</svg>
