<svg width="228" height="143" viewBox="0 0 228 143" fill="none" xmlns="http://www.w3.org/2000/svg">
<rect x="0.5" y="0.5" width="111" height="46" rx="23" stroke="#D58D65"/>
<path d="M21.4659 18.8182V29H20.233V18.8182H21.4659ZM24.9522 24.4062V29H23.7789V21.3636H24.9125V22.5568H25.0119C25.1909 22.169 25.4627 21.8575 25.8272 21.6222C26.1918 21.3835 26.6625 21.2642 27.2392 21.2642C27.7562 21.2642 28.2086 21.3703 28.5964 21.5824C28.9842 21.7912 29.2858 22.1094 29.5012 22.5369C29.7167 22.9612 29.8244 23.4981 29.8244 24.1477V29H28.6511V24.2273C28.6511 23.6274 28.4953 23.16 28.1838 22.8253C27.8722 22.4872 27.4447 22.3182 26.9011 22.3182C26.5266 22.3182 26.1918 22.3994 25.8968 22.5618C25.6052 22.7242 25.3748 22.9612 25.2058 23.2727C25.0368 23.5843 24.9522 23.9621 24.9522 24.4062ZM35.2894 21.3636V22.358H31.332V21.3636H35.2894ZM32.4854 19.5341H33.6587V26.8125C33.6587 27.1439 33.7068 27.3925 33.8029 27.5582C33.9023 27.7206 34.0283 27.83 34.1808 27.8864C34.3365 27.9394 34.5006 27.9659 34.6729 27.9659C34.8022 27.9659 34.9083 27.9593 34.9911 27.946C35.074 27.9295 35.1403 27.9162 35.19 27.9062L35.4286 28.9602C35.3491 28.9901 35.238 29.0199 35.0955 29.0497C34.953 29.0829 34.7724 29.0994 34.5536 29.0994C34.2222 29.0994 33.8974 29.0282 33.5792 28.8857C33.2643 28.7431 33.0025 28.526 32.7937 28.2344C32.5882 27.9427 32.4854 27.5748 32.4854 27.1307V19.5341ZM40.174 29.1591C39.4382 29.1591 38.8035 28.9967 38.2699 28.6719C37.7396 28.3438 37.3303 27.8864 37.0419 27.2997C36.7569 26.7098 36.6143 26.0237 36.6143 25.2415C36.6143 24.4593 36.7569 23.7699 37.0419 23.1733C37.3303 22.5734 37.7313 22.1061 38.245 21.7713C38.7621 21.4332 39.3653 21.2642 40.0547 21.2642C40.4524 21.2642 40.8452 21.3305 41.233 21.4631C41.6207 21.5956 41.9737 21.8111 42.2919 22.1094C42.6101 22.4044 42.8636 22.7955 43.0526 23.2827C43.2415 23.7699 43.3359 24.3698 43.3359 25.0824V25.5795H37.4496V24.5653H42.1428C42.1428 24.1345 42.0566 23.75 41.8842 23.4119C41.7152 23.0739 41.4732 22.8071 41.1584 22.6115C40.8468 22.416 40.4789 22.3182 40.0547 22.3182C39.5874 22.3182 39.183 22.4342 38.8416 22.6662C38.5036 22.8949 38.2434 23.1932 38.0611 23.5611C37.8788 23.929 37.7876 24.3234 37.7876 24.7443V25.4205C37.7876 25.9972 37.8871 26.486 38.0859 26.8871C38.2881 27.2848 38.5682 27.5881 38.9261 27.7969C39.2841 28.0024 39.7 28.1051 40.174 28.1051C40.4822 28.1051 40.7607 28.062 41.0092 27.9759C41.2611 27.8864 41.4782 27.7538 41.6605 27.5781C41.8428 27.3991 41.9837 27.1771 42.0831 26.9119L43.2166 27.2301C43.0973 27.6146 42.8968 27.9527 42.6151 28.2443C42.3333 28.5327 41.9853 28.758 41.571 28.9205C41.1567 29.0795 40.6911 29.1591 40.174 29.1591ZM45.1207 29V21.3636H46.2543V22.517H46.3338C46.473 22.1392 46.7249 21.8326 47.0895 21.5973C47.4541 21.362 47.8651 21.2443 48.3224 21.2443C48.4086 21.2443 48.5163 21.246 48.6456 21.2493C48.7749 21.2526 48.8726 21.2576 48.9389 21.2642V22.4574C48.8991 22.4474 48.808 22.4325 48.6655 22.4126C48.5263 22.3894 48.3788 22.3778 48.223 22.3778C47.8518 22.3778 47.5204 22.4557 47.2287 22.6115C46.9403 22.764 46.7116 22.9761 46.5426 23.2479C46.3769 23.5163 46.294 23.8229 46.294 24.1676V29H45.1207ZM50.3297 31.8636V21.3636H51.4632V22.5767H51.6025C51.6886 22.4441 51.8079 22.2751 51.9604 22.0696C52.1162 21.8608 52.3382 21.6752 52.6266 21.5128C52.9183 21.3471 53.3127 21.2642 53.8098 21.2642C54.4528 21.2642 55.0196 21.425 55.5101 21.7464C56.0007 22.0679 56.3835 22.5237 56.6586 23.1136C56.9337 23.7036 57.0712 24.3996 57.0712 25.2017C57.0712 26.0104 56.9337 26.7114 56.6586 27.3047C56.3835 27.8946 56.0023 28.352 55.5151 28.6768C55.0279 28.9983 54.4661 29.1591 53.8297 29.1591C53.3392 29.1591 52.9464 29.0779 52.6515 28.9155C52.3565 28.7498 52.1294 28.5625 51.9703 28.3537C51.8113 28.1416 51.6886 27.9659 51.6025 27.8267H51.503V31.8636H50.3297ZM51.4831 25.1818C51.4831 25.7585 51.5676 26.2673 51.7367 26.7081C51.9057 27.1456 52.1526 27.4886 52.4775 27.7372C52.8023 27.9825 53.2 28.1051 53.6706 28.1051C54.1612 28.1051 54.5705 27.9759 54.8986 27.7173C55.2301 27.4555 55.4786 27.1042 55.6444 26.6634C55.8134 26.2192 55.8979 25.7254 55.8979 25.1818C55.8979 24.6449 55.815 24.161 55.6493 23.7301C55.4869 23.2959 55.24 22.9529 54.9086 22.701C54.5804 22.4458 54.1678 22.3182 53.6706 22.3182C53.1934 22.3182 52.7923 22.4392 52.4675 22.6811C52.1427 22.9197 51.8974 23.2545 51.7317 23.6854C51.566 24.1129 51.4831 24.6117 51.4831 25.1818ZM58.861 29V21.3636H59.9945V22.517H60.074C60.2132 22.1392 60.4651 21.8326 60.8297 21.5973C61.1943 21.362 61.6053 21.2443 62.0627 21.2443C62.1489 21.2443 62.2566 21.246 62.3858 21.2493C62.5151 21.2526 62.6129 21.2576 62.6792 21.2642V22.4574C62.6394 22.4474 62.5482 22.4325 62.4057 22.4126C62.2665 22.3894 62.119 22.3778 61.9632 22.3778C61.592 22.3778 61.2606 22.4557 60.9689 22.6115C60.6806 22.764 60.4519 22.9761 60.2828 23.2479C60.1171 23.5163 60.0343 23.8229 60.0343 24.1676V29H58.861ZM67.0392 29.1591C66.3034 29.1591 65.6687 28.9967 65.1351 28.6719C64.6048 28.3438 64.1955 27.8864 63.9071 27.2997C63.6221 26.7098 63.4796 26.0237 63.4796 25.2415C63.4796 24.4593 63.6221 23.7699 63.9071 23.1733C64.1955 22.5734 64.5965 22.1061 65.1103 21.7713C65.6273 21.4332 66.2305 21.2642 66.9199 21.2642C67.3176 21.2642 67.7104 21.3305 68.0982 21.4631C68.486 21.5956 68.839 21.8111 69.1571 22.1094C69.4753 22.4044 69.7289 22.7955 69.9178 23.2827C70.1067 23.7699 70.2012 24.3698 70.2012 25.0824V25.5795H64.3148V24.5653H69.008C69.008 24.1345 68.9218 23.75 68.7495 23.4119C68.5804 23.0739 68.3385 22.8071 68.0236 22.6115C67.7121 22.416 67.3442 22.3182 66.9199 22.3182C66.4526 22.3182 66.0482 22.4342 65.7069 22.6662C65.3688 22.8949 65.1086 23.1932 64.9263 23.5611C64.744 23.929 64.6529 24.3234 64.6529 24.7443V25.4205C64.6529 25.9972 64.7523 26.486 64.9512 26.8871C65.1533 27.2848 65.4334 27.5881 65.7914 27.7969C66.1493 28.0024 66.5653 28.1051 67.0392 28.1051C67.3475 28.1051 67.6259 28.062 67.8745 27.9759C68.1264 27.8864 68.3435 27.7538 68.5257 27.5781C68.708 27.3991 68.8489 27.1771 68.9483 26.9119L70.0819 27.2301C69.9625 27.6146 69.762 27.9527 69.4803 28.2443C69.1986 28.5327 68.8506 28.758 68.4363 28.9205C68.022 29.0795 67.5563 29.1591 67.0392 29.1591ZM75.307 21.3636V22.358H71.3496V21.3636H75.307ZM72.503 19.5341H73.6763V26.8125C73.6763 27.1439 73.7244 27.3925 73.8205 27.5582C73.9199 27.7206 74.0459 27.83 74.1983 27.8864C74.3541 27.9394 74.5182 27.9659 74.6905 27.9659C74.8198 27.9659 74.9258 27.9593 75.0087 27.946C75.0916 27.9295 75.1578 27.9162 75.2076 27.9062L75.4462 28.9602C75.3667 28.9901 75.2556 29.0199 75.1131 29.0497C74.9706 29.0829 74.79 29.0994 74.5712 29.0994C74.2398 29.0994 73.915 29.0282 73.5968 28.8857C73.2819 28.7431 73.0201 28.526 72.8113 28.2344C72.6058 27.9427 72.503 27.5748 72.503 27.1307V19.5341ZM80.1916 29.1591C79.4558 29.1591 78.8211 28.9967 78.2875 28.6719C77.7572 28.3438 77.3478 27.8864 77.0595 27.2997C76.7744 26.7098 76.6319 26.0237 76.6319 25.2415C76.6319 24.4593 76.7744 23.7699 77.0595 23.1733C77.3478 22.5734 77.7489 22.1061 78.2626 21.7713C78.7797 21.4332 79.3829 21.2642 80.0723 21.2642C80.47 21.2642 80.8627 21.3305 81.2505 21.4631C81.6383 21.5956 81.9913 21.8111 82.3095 22.1094C82.6277 22.4044 82.8812 22.7955 83.0701 23.2827C83.2591 23.7699 83.3535 24.3698 83.3535 25.0824V25.5795H77.4672V24.5653H82.1603C82.1603 24.1345 82.0742 23.75 81.9018 23.4119C81.7328 23.0739 81.4908 22.8071 81.176 22.6115C80.8644 22.416 80.4965 22.3182 80.0723 22.3182C79.6049 22.3182 79.2006 22.4342 78.8592 22.6662C78.5211 22.8949 78.2609 23.1932 78.0787 23.5611C77.8964 23.929 77.8052 24.3234 77.8052 24.7443V25.4205C77.8052 25.9972 77.9047 26.486 78.1035 26.8871C78.3057 27.2848 78.5858 27.5881 78.9437 27.7969C79.3017 28.0024 79.7176 28.1051 80.1916 28.1051C80.4998 28.1051 80.7782 28.062 81.0268 27.9759C81.2787 27.8864 81.4958 27.7538 81.6781 27.5781C81.8604 27.3991 82.0012 27.1771 82.1007 26.9119L83.2342 27.2301C83.1149 27.6146 82.9144 27.9527 82.6326 28.2443C82.3509 28.5327 82.0029 28.758 81.5886 28.9205C81.1743 29.0795 80.7086 29.1591 80.1916 29.1591ZM88.0218 29.1591C87.3855 29.1591 86.8237 28.9983 86.3365 28.6768C85.8493 28.352 85.4681 27.8946 85.193 27.3047C84.9179 26.7114 84.7804 26.0104 84.7804 25.2017C84.7804 24.3996 84.9179 23.7036 85.193 23.1136C85.4681 22.5237 85.8509 22.0679 86.3414 21.7464C86.832 21.425 87.3987 21.2642 88.0417 21.2642C88.5389 21.2642 88.9316 21.3471 89.22 21.5128C89.5117 21.6752 89.7337 21.8608 89.8862 22.0696C90.042 22.2751 90.1629 22.4441 90.2491 22.5767H90.3485V18.8182H91.5218V29H90.3883V27.8267H90.2491C90.1629 27.9659 90.0403 28.1416 89.8812 28.3537C89.7221 28.5625 89.4951 28.7498 89.2001 28.9155C88.9051 29.0779 88.5124 29.1591 88.0218 29.1591ZM88.1809 28.1051C88.6516 28.1051 89.0493 27.9825 89.3741 27.7372C89.6989 27.4886 89.9458 27.1456 90.1149 26.7081C90.2839 26.2673 90.3684 25.7585 90.3684 25.1818C90.3684 24.6117 90.2856 24.1129 90.1199 23.6854C89.9541 23.2545 89.7089 22.9197 89.3841 22.6811C89.0592 22.4392 88.6582 22.3182 88.1809 22.3182C87.6838 22.3182 87.2695 22.4458 86.938 22.701C86.6099 22.9529 86.363 23.2959 86.1973 23.7301C86.0349 24.161 85.9537 24.6449 85.9537 25.1818C85.9537 25.7254 86.0365 26.2192 86.2022 26.6634C86.3713 27.1042 86.6199 27.4555 86.948 27.7173C87.2794 27.9759 87.6904 28.1051 88.1809 28.1051Z" fill="#9C2100"/>
<rect x="129.5" y="49.5" width="98" height="46" rx="23" fill="#F18487"/>
<rect x="129.5" y="49.5" width="98" height="46" rx="23" stroke="#D58D65"/>
<path d="M149.651 78H148.358L152.097 67.8182H153.369L157.108 78H155.815L152.773 69.429H152.693L149.651 78ZM150.128 74.0227H155.338V75.1165H150.128V74.0227ZM159.708 73.4062V78H158.535V70.3636H159.668V71.5568H159.768C159.947 71.169 160.219 70.8575 160.583 70.6222C160.948 70.3835 161.418 70.2642 161.995 70.2642C162.512 70.2642 162.964 70.3703 163.352 70.5824C163.74 70.7912 164.042 71.1094 164.257 71.5369C164.473 71.9612 164.58 72.4981 164.58 73.1477V78H163.407V73.2273C163.407 72.6274 163.251 72.16 162.94 71.8253C162.628 71.4872 162.201 71.3182 161.657 71.3182C161.282 71.3182 160.948 71.3994 160.653 71.5618C160.361 71.7242 160.131 71.9612 159.962 72.2727C159.793 72.5843 159.708 72.9621 159.708 73.4062ZM168.971 78.179C168.488 78.179 168.048 78.0878 167.654 77.9055C167.26 77.7199 166.946 77.4531 166.714 77.1051C166.482 76.7538 166.366 76.3295 166.366 75.8324C166.366 75.3949 166.452 75.0402 166.625 74.7685C166.797 74.4934 167.028 74.2779 167.316 74.1222C167.604 73.9664 167.922 73.8504 168.27 73.7741C168.622 73.6946 168.975 73.6316 169.329 73.5852C169.793 73.5256 170.17 73.4808 170.458 73.451C170.75 73.4179 170.962 73.3632 171.094 73.2869C171.23 73.2107 171.298 73.0781 171.298 72.8892V72.8494C171.298 72.3589 171.164 71.9777 170.895 71.706C170.63 71.4342 170.228 71.2983 169.687 71.2983C169.127 71.2983 168.688 71.4209 168.37 71.6662C168.052 71.9115 167.828 72.1733 167.699 72.4517L166.585 72.054C166.784 71.59 167.049 71.2287 167.381 70.9702C167.715 70.7083 168.08 70.526 168.474 70.4233C168.872 70.3172 169.263 70.2642 169.648 70.2642C169.893 70.2642 170.175 70.294 170.493 70.3537C170.814 70.41 171.124 70.5277 171.422 70.7067C171.724 70.8857 171.974 71.1558 172.173 71.517C172.372 71.8783 172.471 72.3622 172.471 72.9688V78H171.298V76.9659H171.238C171.159 77.1316 171.026 77.3089 170.841 77.4979C170.655 77.6868 170.408 77.8475 170.1 77.9801C169.792 78.1127 169.416 78.179 168.971 78.179ZM169.15 77.125C169.614 77.125 170.006 77.0339 170.324 76.8516C170.645 76.6693 170.887 76.4339 171.05 76.1456C171.215 75.8572 171.298 75.554 171.298 75.2358V74.1619C171.248 74.2216 171.139 74.2763 170.97 74.326C170.804 74.3724 170.612 74.4138 170.393 74.4503C170.178 74.4834 169.967 74.5133 169.762 74.5398C169.56 74.563 169.396 74.5829 169.27 74.5994C168.965 74.6392 168.68 74.7038 168.415 74.7933C168.153 74.8795 167.941 75.0104 167.778 75.1861C167.619 75.3584 167.54 75.5937 167.54 75.892C167.54 76.2997 167.69 76.608 167.992 76.8168C168.297 77.0223 168.683 77.125 169.15 77.125ZM175.786 67.8182V78H174.613V67.8182H175.786ZM178.691 80.8636C178.492 80.8636 178.315 80.8471 178.159 80.8139C178.003 80.7841 177.895 80.7543 177.836 80.7244L178.134 79.6903C178.419 79.7633 178.671 79.7898 178.89 79.7699C179.108 79.75 179.302 79.6522 179.471 79.4766C179.644 79.3042 179.801 79.0241 179.944 78.6364L180.162 78.0398L177.339 70.3636H178.611L180.719 76.4489H180.799L182.907 70.3636H184.18L180.938 79.1136C180.792 79.508 180.612 79.8345 180.396 80.093C180.181 80.3549 179.93 80.5488 179.645 80.6747C179.364 80.8007 179.046 80.8636 178.691 80.8636ZM185.509 78V77.1051L189.845 71.5369V71.4574H185.649V70.3636H191.356V71.2983L187.14 76.8267V76.9062H191.495V78H185.509ZM196.285 78.1591C195.55 78.1591 194.915 77.9967 194.381 77.6719C193.851 77.3438 193.442 76.8864 193.153 76.2997C192.868 75.7098 192.726 75.0237 192.726 74.2415C192.726 73.4593 192.868 72.7699 193.153 72.1733C193.442 71.5734 193.843 71.1061 194.356 70.7713C194.873 70.4332 195.477 70.2642 196.166 70.2642C196.564 70.2642 196.956 70.3305 197.344 70.4631C197.732 70.5956 198.085 70.8111 198.403 71.1094C198.721 71.4044 198.975 71.7955 199.164 72.2827C199.353 72.7699 199.447 73.3698 199.447 74.0824V74.5795H193.561V73.5653H198.254C198.254 73.1345 198.168 72.75 197.996 72.4119C197.827 72.0739 197.585 71.8071 197.27 71.6115C196.958 71.416 196.59 71.3182 196.166 71.3182C195.699 71.3182 195.294 71.4342 194.953 71.6662C194.615 71.8949 194.355 72.1932 194.172 72.5611C193.99 72.929 193.899 73.3234 193.899 73.7443V74.4205C193.899 74.9972 193.998 75.486 194.197 75.8871C194.399 76.2848 194.68 76.5881 195.037 76.7969C195.395 77.0024 195.811 77.1051 196.285 77.1051C196.594 77.1051 196.872 77.062 197.121 76.9759C197.372 76.8864 197.59 76.7538 197.772 76.5781C197.954 76.3991 198.095 76.1771 198.194 75.9119L199.328 76.2301C199.209 76.6146 199.008 76.9527 198.726 77.2443C198.445 77.5327 198.097 77.758 197.682 77.9205C197.268 78.0795 196.802 78.1591 196.285 78.1591ZM204.116 78.1591C203.479 78.1591 202.917 77.9983 202.43 77.6768C201.943 77.352 201.562 76.8946 201.287 76.3047C201.012 75.7114 200.874 75.0104 200.874 74.2017C200.874 73.3996 201.012 72.7036 201.287 72.1136C201.562 71.5237 201.945 71.0679 202.435 70.7464C202.926 70.425 203.492 70.2642 204.135 70.2642C204.633 70.2642 205.025 70.3471 205.314 70.5128C205.605 70.6752 205.827 70.8608 205.98 71.0696C206.136 71.2751 206.257 71.4441 206.343 71.5767H206.442V67.8182H207.616V78H206.482V76.8267H206.343C206.257 76.9659 206.134 77.1416 205.975 77.3537C205.816 77.5625 205.589 77.7498 205.294 77.9155C204.999 78.0779 204.606 78.1591 204.116 78.1591ZM204.275 77.1051C204.745 77.1051 205.143 76.9825 205.468 76.7372C205.793 76.4886 206.04 76.1456 206.209 75.7081C206.378 75.2673 206.462 74.7585 206.462 74.1818C206.462 73.6117 206.379 73.1129 206.214 72.6854C206.048 72.2545 205.803 71.9197 205.478 71.6811C205.153 71.4392 204.752 71.3182 204.275 71.3182C203.778 71.3182 203.363 71.4458 203.032 71.701C202.704 71.9529 202.457 72.2959 202.291 72.7301C202.129 73.161 202.047 73.6449 202.047 74.1818C202.047 74.7254 202.13 75.2192 202.296 75.6634C202.465 76.1042 202.714 76.4555 203.042 76.7173C203.373 76.9759 203.784 77.1051 204.275 77.1051Z" fill="#9C2100"/>
<rect x="0.5" y="96.5" width="120" height="46" rx="23" stroke="#D58D65"/>
<path d="M25.8011 117.364C25.7415 116.86 25.4995 116.469 25.0753 116.19C24.651 115.912 24.1307 115.773 23.5142 115.773C23.0634 115.773 22.669 115.846 22.331 115.991C21.9962 116.137 21.7344 116.338 21.5455 116.593C21.3598 116.848 21.267 117.138 21.267 117.463C21.267 117.735 21.3317 117.969 21.4609 118.164C21.5935 118.356 21.7625 118.517 21.968 118.646C22.1735 118.772 22.389 118.877 22.6143 118.96C22.8397 119.039 23.0469 119.104 23.2358 119.153L24.2699 119.432C24.535 119.501 24.83 119.598 25.1548 119.72C25.483 119.843 25.7962 120.01 26.0945 120.222C26.3961 120.431 26.6446 120.7 26.8402 121.028C27.0357 121.356 27.1335 121.759 27.1335 122.236C27.1335 122.786 26.9893 123.283 26.701 123.727C26.416 124.171 25.9983 124.524 25.4482 124.786C24.9013 125.048 24.2367 125.179 23.4545 125.179C22.7254 125.179 22.094 125.061 21.5604 124.826C21.0301 124.591 20.6125 124.263 20.3075 123.842C20.0059 123.421 19.8352 122.932 19.7955 122.375H21.0682C21.1013 122.759 21.2306 123.078 21.456 123.33C21.6847 123.578 21.973 123.764 22.321 123.886C22.6723 124.006 23.0502 124.065 23.4545 124.065C23.9252 124.065 24.3478 123.989 24.7223 123.837C25.0968 123.681 25.3935 123.465 25.6122 123.19C25.831 122.912 25.9403 122.587 25.9403 122.216C25.9403 121.878 25.8459 121.603 25.657 121.391C25.468 121.179 25.2195 121.006 24.9112 120.874C24.603 120.741 24.2699 120.625 23.9119 120.526L22.6591 120.168C21.8636 119.939 21.2339 119.612 20.7699 119.188C20.3059 118.764 20.0739 118.209 20.0739 117.523C20.0739 116.953 20.228 116.455 20.5362 116.031C20.8478 115.604 21.2654 115.272 21.7891 115.037C22.3161 114.798 22.9044 114.679 23.554 114.679C24.2102 114.679 24.7936 114.797 25.304 115.032C25.8144 115.264 26.2188 115.582 26.517 115.987C26.8187 116.391 26.9777 116.85 26.9943 117.364H25.8011ZM33.8141 121.878V117.364H34.9874V125H33.8141V123.707H33.7346C33.5556 124.095 33.2772 124.425 32.8993 124.697C32.5215 124.965 32.0442 125.099 31.4675 125.099C30.9902 125.099 30.566 124.995 30.1948 124.786C29.8236 124.574 29.5319 124.256 29.3198 123.832C29.1077 123.404 29.0016 122.866 29.0016 122.216V117.364H30.1749V122.136C30.1749 122.693 30.3307 123.137 30.6422 123.469C30.9571 123.8 31.3581 123.966 31.8453 123.966C32.137 123.966 32.4337 123.891 32.7353 123.742C33.0402 123.593 33.2954 123.364 33.5009 123.056C33.7097 122.748 33.8141 122.355 33.8141 121.878ZM37.1364 125V117.364H38.2699V118.557H38.3693C38.5284 118.149 38.7853 117.833 39.1399 117.607C39.4946 117.379 39.9205 117.264 40.4176 117.264C40.9214 117.264 41.3407 117.379 41.6754 117.607C42.0135 117.833 42.277 118.149 42.4659 118.557H42.5455C42.741 118.162 43.0343 117.849 43.4254 117.617C43.8165 117.382 44.2855 117.264 44.8324 117.264C45.5152 117.264 46.0736 117.478 46.5078 117.906C46.942 118.33 47.1591 118.991 47.1591 119.889V125H45.9858V119.889C45.9858 119.326 45.8317 118.923 45.5234 118.681C45.2152 118.439 44.8523 118.318 44.4347 118.318C43.8977 118.318 43.4818 118.481 43.1868 118.805C42.8918 119.127 42.7443 119.535 42.7443 120.028V125H41.5511V119.77C41.5511 119.336 41.4103 118.986 41.1286 118.721C40.8468 118.452 40.4839 118.318 40.0398 118.318C39.7348 118.318 39.4498 118.399 39.1847 118.562C38.9228 118.724 38.7107 118.95 38.5483 119.238C38.3892 119.523 38.3097 119.853 38.3097 120.227V125H37.1364ZM49.3043 125V117.364H50.4379V118.557H50.5373C50.6964 118.149 50.9532 117.833 51.3079 117.607C51.6625 117.379 52.0884 117.264 52.5856 117.264C53.0894 117.264 53.5086 117.379 53.8434 117.607C54.1815 117.833 54.445 118.149 54.6339 118.557H54.7134C54.909 118.162 55.2023 117.849 55.5934 117.617C55.9845 117.382 56.4535 117.264 57.0004 117.264C57.6831 117.264 58.2416 117.478 58.6758 117.906C59.11 118.33 59.3271 118.991 59.3271 119.889V125H58.1538V119.889C58.1538 119.326 57.9996 118.923 57.6914 118.681C57.3832 118.439 57.0202 118.318 56.6026 118.318C56.0657 118.318 55.6497 118.481 55.3548 118.805C55.0598 119.127 54.9123 119.535 54.9123 120.028V125H53.7191V119.77C53.7191 119.336 53.5782 118.986 53.2965 118.721C53.0148 118.452 52.6519 118.318 52.2077 118.318C51.9028 118.318 51.6178 118.399 51.3526 118.562C51.0908 118.724 50.8787 118.95 50.7163 119.238C50.5572 119.523 50.4776 119.853 50.4776 120.227V125H49.3043ZM63.7195 125.179C63.2356 125.179 62.7964 125.088 62.402 124.906C62.0076 124.72 61.6944 124.453 61.4624 124.105C61.2304 123.754 61.1143 123.33 61.1143 122.832C61.1143 122.395 61.2005 122.04 61.3729 121.768C61.5452 121.493 61.7756 121.278 62.0639 121.122C62.3523 120.966 62.6705 120.85 63.0185 120.774C63.3698 120.695 63.7228 120.632 64.0774 120.585C64.5414 120.526 64.9176 120.481 65.206 120.451C65.4976 120.418 65.7098 120.363 65.8423 120.287C65.9782 120.211 66.0462 120.078 66.0462 119.889V119.849C66.0462 119.359 65.9119 118.978 65.6435 118.706C65.3783 118.434 64.9756 118.298 64.4354 118.298C63.8752 118.298 63.4361 118.421 63.1179 118.666C62.7997 118.911 62.576 119.173 62.4467 119.452L61.3331 119.054C61.532 118.59 61.7971 118.229 62.1286 117.97C62.4633 117.708 62.8279 117.526 63.2223 117.423C63.62 117.317 64.0111 117.264 64.3956 117.264C64.6409 117.264 64.9226 117.294 65.2408 117.354C65.5623 117.41 65.8722 117.528 66.1705 117.707C66.4721 117.886 66.7223 118.156 66.9212 118.517C67.12 118.878 67.2195 119.362 67.2195 119.969V125H66.0462V123.966H65.9865C65.907 124.132 65.7744 124.309 65.5888 124.498C65.4032 124.687 65.1563 124.848 64.848 124.98C64.5398 125.113 64.1636 125.179 63.7195 125.179ZM63.8984 124.125C64.3625 124.125 64.7536 124.034 65.0717 123.852C65.3932 123.669 65.6352 123.434 65.7976 123.146C65.9633 122.857 66.0462 122.554 66.0462 122.236V121.162C65.9964 121.222 65.8871 121.276 65.718 121.326C65.5523 121.372 65.3601 121.414 65.1413 121.45C64.9259 121.483 64.7154 121.513 64.5099 121.54C64.3078 121.563 64.1437 121.583 64.0178 121.599C63.7128 121.639 63.4278 121.704 63.1626 121.793C62.9008 121.879 62.6887 122.01 62.5263 122.186C62.3672 122.358 62.2876 122.594 62.2876 122.892C62.2876 123.3 62.4384 123.608 62.7401 123.817C63.045 124.022 63.4311 124.125 63.8984 124.125ZM69.361 125V117.364H70.4945V118.517H70.574C70.7132 118.139 70.9651 117.833 71.3297 117.597C71.6943 117.362 72.1053 117.244 72.5627 117.244C72.6489 117.244 72.7566 117.246 72.8858 117.249C73.0151 117.253 73.1129 117.258 73.1792 117.264V118.457C73.1394 118.447 73.0482 118.433 72.9057 118.413C72.7665 118.389 72.619 118.378 72.4632 118.378C72.092 118.378 71.7606 118.456 71.4689 118.612C71.1806 118.764 70.9519 118.976 70.7828 119.248C70.6171 119.516 70.5343 119.823 70.5343 120.168V125H69.361ZM74.57 125V117.364H75.7433V125H74.57ZM75.1665 116.091C74.9379 116.091 74.7406 116.013 74.5749 115.857C74.4125 115.701 74.3313 115.514 74.3313 115.295C74.3313 115.077 74.4125 114.889 74.5749 114.734C74.7406 114.578 74.9379 114.5 75.1665 114.5C75.3952 114.5 75.5908 114.578 75.7532 114.734C75.9189 114.889 76.0018 115.077 76.0018 115.295C76.0018 115.514 75.9189 115.701 75.7532 115.857C75.5908 116.013 75.3952 116.091 75.1665 116.091ZM77.6735 125V124.105L82.0087 118.537V118.457H77.8127V117.364H83.5201V118.298L79.3042 123.827V123.906H83.6593V125H77.6735ZM88.4494 125.159C87.7136 125.159 87.0789 124.997 86.5453 124.672C86.015 124.344 85.6056 123.886 85.3173 123.3C85.0323 122.71 84.8897 122.024 84.8897 121.241C84.8897 120.459 85.0323 119.77 85.3173 119.173C85.6056 118.573 86.0067 118.106 86.5204 117.771C87.0375 117.433 87.6407 117.264 88.3301 117.264C88.7278 117.264 89.1206 117.33 89.5083 117.463C89.8961 117.596 90.2491 117.811 90.5673 118.109C90.8855 118.404 91.139 118.795 91.3279 119.283C91.5169 119.77 91.6113 120.37 91.6113 121.082V121.58H85.725V120.565H90.4181C90.4181 120.134 90.332 119.75 90.1596 119.412C89.9906 119.074 89.7486 118.807 89.4338 118.612C89.1222 118.416 88.7543 118.318 88.3301 118.318C87.8627 118.318 87.4584 118.434 87.117 118.666C86.7789 118.895 86.5188 119.193 86.3365 119.561C86.1542 119.929 86.063 120.323 86.063 120.744V121.42C86.063 121.997 86.1625 122.486 86.3613 122.887C86.5635 123.285 86.8436 123.588 87.2015 123.797C87.5595 124.002 87.9754 124.105 88.4494 124.105C88.7576 124.105 89.036 124.062 89.2846 123.976C89.5365 123.886 89.7536 123.754 89.9359 123.578C90.1182 123.399 90.2591 123.177 90.3585 122.912L91.492 123.23C91.3727 123.615 91.1722 123.953 90.8904 124.244C90.6087 124.533 90.2607 124.758 89.8464 124.92C89.4321 125.08 88.9664 125.159 88.4494 125.159ZM96.2797 125.159C95.6433 125.159 95.0815 124.998 94.5943 124.677C94.1071 124.352 93.7259 123.895 93.4508 123.305C93.1757 122.711 93.0382 122.01 93.0382 121.202C93.0382 120.4 93.1757 119.704 93.4508 119.114C93.7259 118.524 94.1087 118.068 94.5993 117.746C95.0898 117.425 95.6565 117.264 96.2995 117.264C96.7967 117.264 97.1895 117.347 97.4778 117.513C97.7695 117.675 97.9915 117.861 98.144 118.07C98.2998 118.275 98.4208 118.444 98.5069 118.577H98.6064V114.818H99.7797V125H98.6461V123.827H98.5069C98.4208 123.966 98.2981 124.142 98.139 124.354C97.9799 124.562 97.7529 124.75 97.4579 124.915C97.1629 125.078 96.7702 125.159 96.2797 125.159ZM96.4387 124.105C96.9094 124.105 97.3071 123.982 97.6319 123.737C97.9567 123.489 98.2037 123.146 98.3727 122.708C98.5417 122.267 98.6262 121.759 98.6262 121.182C98.6262 120.612 98.5434 120.113 98.3777 119.685C98.2119 119.254 97.9667 118.92 97.6419 118.681C97.3171 118.439 96.916 118.318 96.4387 118.318C95.9416 118.318 95.5273 118.446 95.1958 118.701C94.8677 118.953 94.6208 119.296 94.4551 119.73C94.2927 120.161 94.2115 120.645 94.2115 121.182C94.2115 121.725 94.2943 122.219 94.46 122.663C94.6291 123.104 94.8777 123.455 95.2058 123.717C95.5372 123.976 95.9482 124.105 96.4387 124.105Z" fill="#9C2100"/>
<circle cx="137.5" cy="23.5" r="18.25" fill="#FFDBC7" stroke="#9C2100" stroke-width="0.5"/>
<path d="M139.634 17.7222L145.086 23.1746C145.186 23.2742 145.242 23.4096 145.242 23.5503C145.242 23.6909 145.186 23.8258 145.087 23.9253L139.634 29.3784C139.534 29.4778 139.399 29.5337 139.259 29.5338C139.118 29.5338 138.983 29.4772 138.883 29.3777C138.784 29.2782 138.728 29.1433 138.728 29.0028C138.728 28.8621 138.784 28.7272 138.883 28.6278L143.43 24.0806H143.28L131.289 24.0813C131.148 24.0812 131.013 24.0253 130.914 23.9259C130.814 23.8264 130.758 23.6911 130.758 23.5503C130.758 23.4095 130.814 23.2742 130.914 23.1746C131.013 23.0752 131.148 23.0194 131.289 23.0193L143.28 23.02H143.43L138.883 18.4728C138.784 18.3734 138.728 18.2384 138.728 18.0978C138.728 17.9571 138.784 17.8217 138.884 17.7222C138.983 17.6229 139.118 17.5668 139.259 17.5668C139.399 17.5669 139.534 17.6227 139.634 17.7222Z" fill="#9C2100" stroke="#9C2100" stroke-width="0.125"/>
<circle cx="145.5" cy="121.5" r="18.25" fill="#FFDBC7" stroke="#9C2100" stroke-width="0.5"/>
<path d="M138.869 121.03L144.322 115.578C144.433 115.466 144.584 115.404 144.741 115.404C144.899 115.404 145.05 115.466 145.161 115.578C145.272 115.689 145.335 115.84 145.335 115.997C145.335 116.154 145.272 116.305 145.161 116.416L140.721 120.857L152.711 120.856C152.868 120.856 153.019 120.919 153.131 121.03C153.242 121.141 153.304 121.292 153.304 121.45C153.304 121.607 153.242 121.758 153.131 121.869C153.019 121.981 152.868 122.043 152.711 122.043L140.721 122.043L145.161 126.483C145.272 126.594 145.335 126.745 145.335 126.903C145.335 127.06 145.272 127.211 145.161 127.322C145.05 127.433 144.899 127.496 144.741 127.496C144.584 127.496 144.433 127.433 144.322 127.322L138.869 121.869C138.758 121.758 138.695 121.607 138.695 121.45C138.695 121.292 138.758 121.142 138.869 121.03Z" fill="#9C2100"/>
</svg>
