<svg width="295" height="217" viewBox="0 0 295 217" fill="none" xmlns="http://www.w3.org/2000/svg">
<mask id="mask0_50_63" style="mask-type:alpha" maskUnits="userSpaceOnUse" x="0" y="0" width="295" height="217">
<rect width="295" height="217" rx="10" fill="url(#paint0_linear_50_63)"/>
</mask>
<g mask="url(#mask0_50_63)">
<path d="M313.558 105.563C307.626 87.478 295.729 71.9439 279.815 61.5047C263.901 51.0655 244.914 46.34 225.963 48.1023C207.013 49.8646 189.222 58.0102 175.506 71.2049C161.79 84.3995 152.962 101.861 150.466 120.729C147.971 139.597 151.958 158.753 161.773 175.06C171.587 191.366 186.649 203.856 204.49 210.484C222.331 217.111 241.894 217.484 259.975 211.54C278.055 205.596 293.581 193.689 304.01 177.767L294.82 171.748C285.755 185.587 272.26 195.938 256.544 201.104C240.828 206.271 223.823 205.947 208.316 200.186C192.808 194.425 179.716 183.569 171.185 169.395C162.653 155.221 159.188 138.57 161.357 122.169C163.526 105.769 171.2 90.5908 183.122 79.1217C195.045 67.6526 210.508 60.5723 226.981 59.0405C243.453 57.5086 259.957 61.6161 273.79 70.6901C287.623 79.7641 297.964 93.2667 303.12 108.986L313.558 105.563Z" fill="white"/>
<path d="M209.568 167L214.773 156.705V156.614H208.773V155.364H216.227V156.682L211.045 167H209.568ZM221.838 167.159C221.058 167.159 220.368 167.021 219.77 166.744C219.175 166.464 218.711 166.08 218.378 165.591C218.045 165.098 217.88 164.538 217.884 163.909C217.88 163.417 217.976 162.962 218.173 162.545C218.37 162.125 218.639 161.775 218.98 161.494C219.325 161.21 219.709 161.03 220.134 160.955V160.886C219.577 160.742 219.134 160.43 218.804 159.949C218.474 159.464 218.312 158.913 218.315 158.295C218.312 157.705 218.461 157.176 218.764 156.71C219.067 156.244 219.484 155.877 220.014 155.608C220.548 155.339 221.156 155.205 221.838 155.205C222.512 155.205 223.115 155.339 223.645 155.608C224.175 155.877 224.592 156.244 224.895 156.71C225.202 157.176 225.357 157.705 225.361 158.295C225.357 158.913 225.188 159.464 224.855 159.949C224.526 160.43 224.088 160.742 223.543 160.886V160.955C223.963 161.03 224.342 161.21 224.679 161.494C225.016 161.775 225.285 162.125 225.486 162.545C225.687 162.962 225.789 163.417 225.793 163.909C225.789 164.538 225.618 165.098 225.281 165.591C224.948 166.08 224.484 166.464 223.889 166.744C223.298 167.021 222.615 167.159 221.838 167.159ZM221.838 165.909C222.365 165.909 222.819 165.824 223.202 165.653C223.584 165.483 223.88 165.242 224.088 164.932C224.296 164.621 224.402 164.258 224.406 163.841C224.402 163.402 224.289 163.013 224.065 162.676C223.842 162.339 223.537 162.074 223.151 161.881C222.768 161.687 222.33 161.591 221.838 161.591C221.342 161.591 220.899 161.687 220.509 161.881C220.122 162.074 219.817 162.339 219.594 162.676C219.374 163.013 219.266 163.402 219.27 163.841C219.266 164.258 219.366 164.621 219.571 164.932C219.779 165.242 220.077 165.483 220.463 165.653C220.849 165.824 221.308 165.909 221.838 165.909ZM221.838 160.386C222.255 160.386 222.624 160.303 222.946 160.136C223.272 159.97 223.527 159.737 223.713 159.438C223.899 159.138 223.993 158.788 223.997 158.386C223.993 157.992 223.901 157.65 223.719 157.358C223.537 157.062 223.285 156.835 222.963 156.676C222.641 156.513 222.266 156.432 221.838 156.432C221.402 156.432 221.022 156.513 220.696 156.676C220.37 156.835 220.118 157.062 219.94 157.358C219.762 157.65 219.675 157.992 219.679 158.386C219.675 158.788 219.764 159.138 219.946 159.438C220.132 159.737 220.387 159.97 220.713 160.136C221.039 160.303 221.414 160.386 221.838 160.386ZM232.107 154.818L228.357 168.75H227.129L230.879 154.818H232.107ZM237.764 155.364V167H236.355V156.841H236.287L233.446 158.727V157.295L236.355 155.364H237.764ZM244.906 167.159C244.05 167.159 243.321 166.926 242.719 166.46C242.116 165.991 241.656 165.311 241.338 164.42C241.02 163.527 240.861 162.447 240.861 161.182C240.861 159.924 241.02 158.85 241.338 157.96C241.66 157.066 242.122 156.384 242.724 155.915C243.33 155.441 244.058 155.205 244.906 155.205C245.755 155.205 246.48 155.441 247.082 155.915C247.688 156.384 248.151 157.066 248.469 157.96C248.791 158.85 248.952 159.924 248.952 161.182C248.952 162.447 248.793 163.527 248.474 164.42C248.156 165.311 247.696 165.991 247.094 166.46C246.491 166.926 245.762 167.159 244.906 167.159ZM244.906 165.909C245.755 165.909 246.414 165.5 246.884 164.682C247.353 163.864 247.588 162.697 247.588 161.182C247.588 160.174 247.48 159.316 247.264 158.608C247.052 157.9 246.745 157.36 246.344 156.989C245.946 156.617 245.467 156.432 244.906 156.432C244.065 156.432 243.408 156.847 242.935 157.676C242.461 158.502 242.224 159.67 242.224 161.182C242.224 162.189 242.33 163.045 242.543 163.75C242.755 164.455 243.06 164.991 243.457 165.358C243.859 165.725 244.342 165.909 244.906 165.909ZM254.906 167.159C254.05 167.159 253.321 166.926 252.719 166.46C252.116 165.991 251.656 165.311 251.338 164.42C251.02 163.527 250.861 162.447 250.861 161.182C250.861 159.924 251.02 158.85 251.338 157.96C251.66 157.066 252.122 156.384 252.724 155.915C253.33 155.441 254.058 155.205 254.906 155.205C255.755 155.205 256.48 155.441 257.082 155.915C257.688 156.384 258.151 157.066 258.469 157.96C258.791 158.85 258.952 159.924 258.952 161.182C258.952 162.447 258.793 163.527 258.474 164.42C258.156 165.311 257.696 165.991 257.094 166.46C256.491 166.926 255.762 167.159 254.906 167.159ZM254.906 165.909C255.755 165.909 256.414 165.5 256.884 164.682C257.353 163.864 257.588 162.697 257.588 161.182C257.588 160.174 257.48 159.316 257.264 158.608C257.052 157.9 256.745 157.36 256.344 156.989C255.946 156.617 255.467 156.432 254.906 156.432C254.065 156.432 253.408 156.847 252.935 157.676C252.461 158.502 252.224 159.67 252.224 161.182C252.224 162.189 252.33 163.045 252.543 163.75C252.755 164.455 253.06 164.991 253.457 165.358C253.859 165.725 254.342 165.909 254.906 165.909Z" fill="#E43A91"/>
<path d="M196.568 141.477C193.75 141.477 191.233 141.04 189.017 140.165C186.813 139.29 185.074 138.102 183.801 136.602C182.54 135.102 181.909 133.409 181.909 131.523C181.909 130.08 182.267 128.761 182.983 127.568C183.71 126.375 184.688 125.386 185.915 124.602C187.142 123.807 188.511 123.295 190.023 123.068V122.795C188.034 122.455 186.398 121.574 185.114 120.153C183.841 118.722 183.205 117.034 183.205 115.091C183.205 113.261 183.784 111.636 184.943 110.216C186.102 108.784 187.688 107.659 189.699 106.841C191.71 106.023 194 105.614 196.568 105.614C199.136 105.614 201.426 106.028 203.438 106.858C205.449 107.676 207.034 108.801 208.193 110.233C209.352 111.653 209.932 113.273 209.932 115.091C209.932 117.045 209.284 118.733 207.989 120.153C206.693 121.574 205.068 122.455 203.114 122.795V123.068C204.614 123.295 205.977 123.807 207.205 124.602C208.432 125.386 209.409 126.375 210.136 127.568C210.864 128.761 211.227 130.08 211.227 131.523C211.227 133.409 210.591 135.102 209.318 136.602C208.057 138.102 206.318 139.29 204.102 140.165C201.898 141.04 199.386 141.477 196.568 141.477ZM196.568 134.932C197.466 134.932 198.261 134.75 198.955 134.386C199.648 134.023 200.193 133.523 200.591 132.886C201 132.239 201.205 131.511 201.205 130.705C201.205 129.898 201 129.182 200.591 128.557C200.193 127.932 199.648 127.443 198.955 127.091C198.261 126.727 197.466 126.545 196.568 126.545C195.682 126.545 194.886 126.727 194.182 127.091C193.489 127.443 192.938 127.932 192.528 128.557C192.131 129.182 191.932 129.898 191.932 130.705C191.932 131.511 192.131 132.233 192.528 132.869C192.938 133.506 193.489 134.011 194.182 134.386C194.886 134.75 195.682 134.932 196.568 134.932ZM196.568 120C197.364 120 198.068 119.835 198.682 119.506C199.295 119.176 199.778 118.722 200.131 118.142C200.483 117.562 200.659 116.909 200.659 116.182C200.659 115.455 200.483 114.812 200.131 114.256C199.778 113.687 199.295 113.244 198.682 112.926C198.068 112.597 197.364 112.432 196.568 112.432C195.784 112.432 195.08 112.597 194.455 112.926C193.841 113.244 193.358 113.687 193.006 114.256C192.653 114.812 192.477 115.455 192.477 116.182C192.477 116.909 192.653 117.562 193.006 118.142C193.358 118.71 193.841 119.165 194.455 119.506C195.08 119.835 195.784 120 196.568 120ZM215.459 141V134.182L228.482 123.409C229.345 122.693 230.084 122.023 230.697 121.398C231.322 120.761 231.8 120.108 232.129 119.438C232.47 118.767 232.641 118.023 232.641 117.205C232.641 116.307 232.447 115.54 232.061 114.903C231.686 114.267 231.163 113.778 230.493 113.438C229.822 113.085 229.05 112.909 228.175 112.909C227.3 112.909 226.527 113.085 225.857 113.438C225.197 113.79 224.686 114.307 224.322 114.989C223.959 115.67 223.777 116.5 223.777 117.477H214.777C214.777 115.023 215.328 112.909 216.43 111.136C217.533 109.364 219.089 108 221.101 107.045C223.112 106.091 225.47 105.614 228.175 105.614C230.97 105.614 233.391 106.062 235.436 106.96C237.493 107.847 239.078 109.097 240.192 110.71C241.317 112.324 241.879 114.216 241.879 116.386C241.879 117.727 241.601 119.062 241.044 120.392C240.487 121.71 239.487 123.17 238.044 124.773C236.601 126.375 234.55 128.284 231.891 130.5L228.618 133.227V133.432H242.254V141H215.459ZM266.467 134.455V132.614C266.467 131.136 266.786 129.773 267.422 128.523C268.07 127.273 269.007 126.267 270.234 125.506C271.462 124.744 272.956 124.364 274.717 124.364C276.524 124.364 278.041 124.739 279.268 125.489C280.507 126.239 281.445 127.239 282.081 128.489C282.717 129.739 283.036 131.114 283.036 132.614V134.455C283.036 135.932 282.712 137.295 282.064 138.545C281.428 139.795 280.49 140.801 279.251 141.562C278.013 142.324 276.501 142.705 274.717 142.705C272.933 142.705 271.428 142.324 270.2 141.562C268.973 140.801 268.041 139.795 267.405 138.545C266.78 137.295 266.467 135.932 266.467 134.455ZM272.399 132.614V134.455C272.399 135.102 272.558 135.744 272.876 136.381C273.206 137.006 273.82 137.318 274.717 137.318C275.661 137.318 276.28 137.011 276.575 136.398C276.882 135.784 277.036 135.136 277.036 134.455V132.614C277.036 131.932 276.893 131.273 276.609 130.636C276.325 130 275.695 129.682 274.717 129.682C273.82 129.682 273.206 130 272.876 130.636C272.558 131.273 272.399 131.932 272.399 132.614ZM248.195 114.477V112.636C248.195 111.136 248.518 109.761 249.166 108.511C249.825 107.261 250.768 106.261 251.996 105.511C253.223 104.761 254.706 104.386 256.445 104.386C258.251 104.386 259.768 104.761 260.996 105.511C262.234 106.261 263.172 107.261 263.808 108.511C264.445 109.761 264.763 111.136 264.763 112.636V114.477C264.763 115.977 264.439 117.347 263.791 118.585C263.155 119.824 262.217 120.812 260.979 121.551C259.74 122.29 258.229 122.659 256.445 122.659C254.661 122.659 253.155 122.284 251.928 121.534C250.7 120.784 249.768 119.79 249.132 118.551C248.507 117.312 248.195 115.955 248.195 114.477ZM254.195 112.636V114.477C254.195 115.159 254.354 115.807 254.672 116.42C254.99 117.034 255.581 117.341 256.445 117.341C257.388 117.341 258.007 117.034 258.303 116.42C258.609 115.807 258.763 115.159 258.763 114.477V112.636C258.763 111.955 258.621 111.295 258.337 110.659C258.053 110.023 257.422 109.705 256.445 109.705C255.547 109.705 254.945 110.034 254.638 110.693C254.342 111.341 254.195 111.989 254.195 112.636ZM251.092 141L275.092 106.091H279.933L255.933 141H251.092Z" fill="#FF0686"/>
</g>
<defs>
<linearGradient id="paint0_linear_50_63" x1="147.5" y1="0" x2="147.5" y2="217" gradientUnits="userSpaceOnUse">
<stop stop-color="#F6D1E4"/>
<stop offset="1" stop-color="#907A85"/>
</linearGradient>
</defs>
</svg>
