<svg width="258" height="258" viewBox="0 0 258 258" fill="none" xmlns="http://www.w3.org/2000/svg">
<g filter="url(#filter0_d_43_171)">
<circle cx="181.7" cy="71.7" r="65.5" fill="#F28E56"/>
<mask id="mask0_43_171" style="mask-type:alpha" maskUnits="userSpaceOnUse" x="116" y="6" width="132" height="132">
<circle cx="181.7" cy="71.7" r="65.5" fill="#F28E56"/>
</mask>
<g mask="url(#mask0_43_171)">
<path d="M187.199 134.2L165.522 54.9272H175.277L191.843 119.491H192.618L209.494 54.9272H220.332L237.208 119.491H237.983L254.549 54.9272H264.304L242.628 134.2H232.718L215.223 71.0295H214.603L197.108 134.2H187.199Z" fill="white"/>
</g>
<circle cx="181.7" cy="177.7" r="65.5" fill="#D61855"/>
<mask id="mask1_43_171" style="mask-type:alpha" maskUnits="userSpaceOnUse" x="116" y="112" width="132" height="132">
<circle cx="181.7" cy="177.7" r="65.5" fill="#D61855"/>
</mask>
<g mask="url(#mask1_43_171)">
<path d="M188.035 182.77V173.331H253.937V182.77H226.306V261.2H215.666V182.77H188.035Z" fill="white"/>
</g>
<circle cx="75.7" cy="71.7" r="65.5" fill="#FFC5A5"/>
<mask id="mask2_43_171" style="mask-type:alpha" maskUnits="userSpaceOnUse" x="10" y="6" width="132" height="132">
<circle cx="75.7" cy="71.7" r="65.5" fill="#FFC5A5"/>
</mask>
<g mask="url(#mask2_43_171)">
<path d="M69.3818 72.3818C68.8363 67.7757 66.6242 64.2 62.7454 61.6545C58.8666 59.109 54.109 57.8363 48.4727 57.8363C44.3515 57.8363 40.7454 58.503 37.6545 59.8363C34.5939 61.1696 32.2 63.003 30.4727 65.3363C28.7757 67.6696 27.9272 70.3212 27.9272 73.2909C27.9272 75.7757 28.5181 77.9121 29.7 79.7C30.9121 81.4575 32.4575 82.9272 34.3363 84.109C36.2151 85.2606 38.1848 86.2151 40.2454 86.9727C42.306 87.6999 44.2 88.2909 45.9272 88.7454L55.3818 91.2909C57.806 91.9272 60.503 92.806 63.4727 93.9272C66.4727 95.0484 69.3363 96.5787 72.0636 98.5181C74.8212 100.427 77.0939 102.882 78.8818 105.882C80.6697 108.882 81.5636 112.564 81.5636 116.927C81.5636 121.958 80.2454 126.503 77.609 130.564C75.003 134.624 71.1848 137.851 66.1545 140.245C61.1545 142.639 55.0787 143.836 47.9272 143.836C41.2606 143.836 35.4878 142.761 30.609 140.609C25.7606 138.458 21.9424 135.458 19.1545 131.609C16.3969 127.761 14.8363 123.291 14.4727 118.2H26.109C26.4121 121.715 27.5939 124.624 29.6545 126.927C31.7454 129.2 34.3818 130.897 37.5636 132.018C40.7757 133.109 44.2303 133.654 47.9272 133.654C52.2303 133.654 56.0939 132.958 59.5181 131.564C62.9424 130.139 65.6545 128.17 67.6545 125.654C69.6545 123.109 70.6545 120.139 70.6545 116.745C70.6545 113.654 69.7909 111.139 68.0636 109.2C66.3363 107.261 64.0636 105.685 61.2454 104.473C58.4272 103.261 55.3818 102.2 52.109 101.291L40.6545 98.0181C33.3818 95.9272 27.6242 92.9424 23.3818 89.0636C19.1393 85.1848 17.0181 80.109 17.0181 73.8363C17.0181 68.6242 18.4272 64.0787 21.2454 60.2C24.0939 56.2909 27.9121 53.2606 32.7 51.109C37.5181 48.9272 42.8969 47.8363 48.8363 47.8363C54.8363 47.8363 60.1696 48.9121 64.8363 51.0636C69.503 53.1848 73.2 56.0939 75.9272 59.7909C78.6848 63.4878 80.1393 67.6848 80.2909 72.3818H69.3818Z" fill="white"/>
</g>
<circle cx="75.7" cy="177.7" r="65.5" fill="#F93977"/>
<mask id="mask3_43_171" style="mask-type:alpha" maskUnits="userSpaceOnUse" x="10" y="112" width="132" height="132">
<circle cx="75.7" cy="177.7" r="65.5" fill="#F93977"/>
</mask>
<g mask="url(#mask3_43_171)">
<path d="M83.6857 212.564C83.6857 220.924 82.1762 228.15 79.157 234.24C76.1378 240.33 71.9961 245.026 66.7319 248.329C61.4677 251.632 55.4552 253.284 48.6943 253.284C41.9334 253.284 35.9208 251.632 30.6566 248.329C25.3924 245.026 21.2507 240.33 18.2316 234.24C15.2124 228.15 13.7028 220.924 13.7028 212.564C13.7028 204.203 15.2124 196.977 18.2316 190.887C21.2507 184.797 25.3924 180.101 30.6566 176.798C35.9208 173.495 41.9334 171.843 48.6943 171.843C55.4552 171.843 61.4677 173.495 66.7319 176.798C71.9961 180.101 76.1378 184.797 79.157 190.887C82.1762 196.977 83.6857 204.203 83.6857 212.564ZM74.396 212.564C74.396 205.699 73.2477 199.906 70.951 195.184C68.6802 190.462 65.5965 186.888 61.7 184.462C57.8292 182.036 53.494 180.824 48.6943 180.824C43.8946 180.824 39.5464 182.036 35.6499 184.462C31.7791 186.888 28.6955 190.462 26.3988 195.184C24.128 199.906 22.9926 205.699 22.9926 212.564C22.9926 219.428 24.128 225.221 26.3988 229.943C28.6955 234.666 31.7791 238.239 35.6499 240.665C39.5464 243.091 43.8946 244.304 48.6943 244.304C53.494 244.304 57.8292 243.091 61.7 240.665C65.5965 238.239 68.6802 234.666 70.951 229.943C73.2477 225.221 74.396 219.428 74.396 212.564Z" fill="white"/>
</g>
</g>
<defs>
<filter id="filter0_d_43_171" x="-4.86374e-05" y="-4.86374e-05" width="257.4" height="257.4" filterUnits="userSpaceOnUse" color-interpolation-filters="sRGB">
<feFlood flood-opacity="0" result="BackgroundImageFix"/>
<feColorMatrix in="SourceAlpha" type="matrix" values="0 0 0 0 0 0 0 0 0 0 0 0 0 0 0 0 0 0 127 0" result="hardAlpha"/>
<feOffset dy="4"/>
<feGaussianBlur stdDeviation="5.1"/>
<feComposite in2="hardAlpha" operator="out"/>
<feColorMatrix type="matrix" values="0 0 0 0 0.875962 0 0 0 0 0.602224 0 0 0 0 0.602224 0 0 0 1 0"/>
<feBlend mode="normal" in2="BackgroundImageFix" result="effect1_dropShadow_43_171"/>
<feBlend mode="normal" in="SourceGraphic" in2="effect1_dropShadow_43_171" result="shape"/>
</filter>
</defs>
</svg>
